<?xml version="1.0" encoding="UTF-8" standalone="no"?>
<svg
   width="800.000"
   height="600.000"
   viewBox="0.0 0.0 800.000 600.000"
   version="1.1"
   id="svg1"
   xml:space="preserve"
   xmlns:xlink="http://www.w3.org/1999/xlink"
   xmlns="http://www.w3.org/2000/svg"
   xmlns:svg="http://www.w3.org/2000/svg"><defs
     id="defs1"><marker
       id="DistanceX"
       orient="auto"
       refX="0.0"
       refY="0.0"
       style="overflow:visible"><path
         d="M 3,-3 L -3,3 M 0,-5 L  0,5"
         style="stroke:#000000; stroke-width:0.5"
         id="path1" /></marker><pattern
       id="Hatch"
       patternUnits="userSpaceOnUse"
       width="8"
       height="8"
       x="0"
       y="0"><path
         d="M8 4 l-4,4"
         stroke="#000000"
         stroke-width="0.25"
         linecap="square"
         id="path2" /><path
         d="M6 2 l-4,4"
         stroke="#000000"
         stroke-width="0.25"
         linecap="square"
         id="path3" /><path
         d="M4 0 l-4,4"
         stroke="#000000"
         stroke-width="0.25"
         linecap="square"
         id="path4" /></pattern><symbol
       id="*Model_Space" /><symbol
       id="*Paper_Space" /><symbol
       id="*Paper_Space0" /><symbol
       id="(Unsaved)"><path
         d="M 0.250000,1122.519685 A 0.250000,0.250000 -0.000000 0, 0 -0.250000,1122.519685 A 0.250000,0.250000 -0.000000 0, 0 0.250000,1122.519685 z"
         style="fill:none;stroke:#000000"
         id="path5" /><path
         d="M 11.334384,1134.835918 A 0.250000,0.250000 -0.000000 0, 0 10.834384,1134.835918 A 0.250000,0.250000 -0.000000 0, 0 11.334384,1134.835918 z"
         style="fill:none;stroke:#000000"
         id="path6" /><path
         d="M 2.804507,1122.530911 A 0.250000,0.250000 -0.000000 0, 0 2.304507,1122.530911 A 0.250000,0.250000 -0.000000 0, 0 2.804507,1122.530911 z"
         style="fill:none;stroke:#000000"
         id="path7" /><path
         d="M -5.453317,1123.105580 A 0.250000,0.250000 -0.000000 0, 0 -5.953317,1123.105580 A 0.250000,0.250000 -0.000000 0, 0 -5.453317,1123.105580 z"
         style="fill:none;stroke:#000000"
         id="path8" /><path
         d="M 0.250000,1122.519685 A 0.250000,0.250000 -0.000000 0, 0 -0.250000,1122.519685 A 0.250000,0.250000 -0.000000 0, 0 0.250000,1122.519685 z"
         style="fill:none;stroke:#000000"
         id="path9" /><path
         d="M -1.540339,1122.583959 A 0.250000,0.250000 -0.000000 0, 0 -2.040339,1122.583959 A 0.250000,0.250000 -0.000000 0, 0 -1.540339,1122.583959 z"
         style="fill:none;stroke:#000000"
         id="path10" /><path
         d="M 1.880451,1134.880107 A 0.250000,0.250000 -0.000000 0, 0 1.380451,1134.880107 A 0.250000,0.250000 -0.000000 0, 0 1.880451,1134.880107 z"
         style="fill:none;stroke:#000000"
         id="path11" /><path
         d="M 1.880451,1134.880107 A 0.250000,0.250000 -0.000000 0, 0 1.380451,1134.880107 A 0.250000,0.250000 -0.000000 0, 0 1.880451,1134.880107 z"
         style="fill:none;stroke:#000000"
         id="path12" /><path
         d="M 0.250000,1122.519685 A 0.250000,0.250000 -0.000000 0, 0 -0.250000,1122.519685 A 0.250000,0.250000 -0.000000 0, 0 0.250000,1122.519685 z"
         style="fill:none;stroke:#000000"
         id="path13" /><path
         d="M -1.540339,1122.583959 A 0.250000,0.250000 -0.000000 0, 0 -2.040339,1122.583959 A 0.250000,0.250000 -0.000000 0, 0 -1.540339,1122.583959 z"
         style="fill:none;stroke:#000000"
         id="path14" /><path
         d="M 2.804507,1122.530911 A 0.250000,0.250000 -0.000000 0, 0 2.304507,1122.530911 A 0.250000,0.250000 -0.000000 0, 0 2.804507,1122.530911 z"
         style="fill:none;stroke:#000000"
         id="path15" /><path
         d="M 11.334384,1134.835918 A 0.250000,0.250000 -0.000000 0, 0 10.834384,1134.835918 A 0.250000,0.250000 -0.000000 0, 0 11.334384,1134.835918 z"
         style="fill:none;stroke:#000000"
         id="path16" /><path
         d="M 20.400136,1134.881608 A 0.250000,0.250000 -0.000000 0, 0 19.900136,1134.881608 A 0.250000,0.250000 -0.000000 0, 0 20.400136,1134.881608 z"
         style="fill:none;stroke:#000000"
         id="path17" /><path
         d="M 20.400136,1134.881608 A 0.250000,0.250000 -0.000000 0, 0 19.900136,1134.881608 A 0.250000,0.250000 -0.000000 0, 0 20.400136,1134.881608 z"
         style="fill:none;stroke:#000000"
         id="path18" /><path
         d="M -5.453317,1123.105580 A 0.250000,0.250000 -0.000000 0, 0 -5.953317,1123.105580 A 0.250000,0.250000 -0.000000 0, 0 -5.453317,1123.105580 z"
         style="fill:none;stroke:#000000"
         id="path19" /><path
         style="fill:none;stroke:#000000"
         d="M -6.27025 1123.84 L -6.27025 1122.37"
         id="path20" /><path
         style="fill:none;stroke:#000000"
         d="M 3.09309 1121.84 L 3.09309 1123.23"
         id="path21" /><path
         style="fill:none;stroke:#000000"
         d="M -1.24042 1121.87 L -1.24042 1123.29"
         id="path22" /><path
         d="M -2.340260,1123.294141 A 0.898205,0.898205 -0.000000 0 0 -1.240417,1123.294141"
         style="fill:none;stroke:#000000"
         id="path23" /><path
         style="fill:none;stroke:#000000"
         d="M -5.13639 1122.37 L -5.13639 1123.84"
         id="path24" /><path
         style="fill:none;stroke:#000000"
         d="M 3.09309 1123.41 L 2.01593 1121.65"
         id="path25" /><path
         style="fill:none;stroke:#000000"
         d="M -2.14908 1130.11 L 1.63045 1125.57"
         id="path26" /><path
         style="fill:none;stroke:#000000"
         d="M 14.8588 1130.11 L 11.0793 1125.57"
         id="path27" /><path
         d="M -5.136388,1122.373433 A 0.925984,0.925984 -0.000000 0 0 -6.270247,1122.373433"
         style="fill:none;stroke:#000000"
         id="path28" /><path
         style="fill:none;stroke:#000000"
         d="M 12.969 1130.11 L 12.969 1136.91"
         id="path29" /><path
         style="fill:none;stroke:#000000"
         d="M 9.18951 1136.91 L 9.18951 1130.11"
         id="path30" /><path
         style="fill:none;stroke:#000000"
         d="M -6.27025 1124.03 L -5.13639 1122.18"
         id="path31" /><path
         d="M -6.270247,1123.837726 A 0.925984,0.925984 -0.000000 0 0 -5.136388,1123.837726"
         style="fill:none;stroke:#000000"
         id="path32" /><path
         style="fill:none;stroke:#000000"
         d="M 2.01593 1123.23 L 2.01593 1121.84"
         id="path33" /><path
         style="fill:none;stroke:#000000"
         d="M -1.24042 1123.48 L -2.34026 1121.69"
         id="path34" /><path
         style="fill:none;stroke:#000000"
         d="M -5.13639 1124.03 L -6.27025 1122.18"
         id="path35" /><path
         d="M -0.510236,1123.178617 A 0.833386,0.833386 -0.000000 0 0 0.510236,1123.178617"
         style="fill:none;stroke:#000000"
         id="path36" /><path
         style="fill:none;stroke:#000000"
         d="M 3.52021 1130.11 L 5.40998 1130.11"
         id="path37" /><path
         style="fill:none;stroke:#000000"
         d="M -0.259313 1136.96 L -0.259313 1130.11"
         id="path38" /><path
         style="fill:none;stroke:#000000"
         d="M 9.18951 1130.11 L 7.29974 1130.11"
         id="path39" /><path
         d="M 0.510236,1121.860753 A 0.833386,0.833386 -0.000000 0 0 -0.510236,1121.860753"
         style="fill:none;stroke:#000000"
         id="path40" /><path
         style="fill:none;stroke:#000000"
         d="M 12.969 1136.91 L 9.18951 1136.91"
         id="path41" /><path
         style="fill:none;stroke:#000000"
         d="M 12.969 1130.11 L 14.8588 1130.11"
         id="path42" /><path
         style="fill:none;stroke:#000000"
         d="M 18.2604 1130.11 L 16.3706 1130.11"
         id="path43" /><path
         style="fill:none;stroke:#000000"
         d="M 2.01593 1123.41 L 3.09309 1121.65"
         id="path44" /><path
         style="fill:none;stroke:#000000"
         d="M 22.0399 1136.91 L 18.2604 1136.91"
         id="path45" /><path
         d="M 2.015925,1123.226450 A 0.879685,0.879685 -0.000000 0 0 3.093090,1123.226450"
         style="fill:none;stroke:#000000"
         id="path46" /><path
         style="fill:none;stroke:#000000"
         d="M 3.52021 1136.96 L -0.259313 1136.96"
         id="path47" /><path
         style="fill:none;stroke:#000000"
         d="M 7.29974 1130.11 L 11.0793 1125.57"
         id="path48" /><path
         style="fill:none;stroke:#000000"
         d="M 3.52021 1130.11 L 3.52021 1136.96"
         id="path49" /><path
         style="fill:none;stroke:#000000"
         d="M 0.510236 1123.35 L -0.510236 1121.69"
         id="path50" /><path
         style="fill:none;stroke:#000000"
         d="M -0.259313 1130.11 L -2.14908 1130.11"
         id="path51" /><path
         style="fill:none;stroke:#000000"
         d="M 5.40998 1130.11 L 1.63045 1125.57"
         id="path52" /><path
         d="M -1.240417,1121.873777 A 0.898205,0.898205 -0.000000 0 0 -2.340260,1121.873777"
         style="fill:none;stroke:#000000"
         id="path53" /><path
         style="fill:none;stroke:#000000"
         d="M -2.34026 1123.29 L -2.34026 1121.87"
         id="path54" /><path
         style="fill:none;stroke:#000000"
         d="M -2.34026 1123.48 L -1.24042 1121.69"
         id="path55" /><path
         style="fill:none;stroke:#000000"
         d="M -0.510236 1123.18 L -0.510236 1121.86"
         id="path56" /><path
         style="fill:none;stroke:#000000"
         d="M 0.510236 1121.86 L 0.510236 1123.18"
         id="path57" /><path
         style="fill:none;stroke:#000000"
         d="M -0.510236 1123.35 L 0.510236 1121.69"
         id="path58" /><path
         d="M 3.093090,1121.835372 A 0.879685,0.879685 -0.000000 0 0 2.015925,1121.835372"
         style="fill:none;stroke:#000000"
         id="path59" /><path
         d="M 10.574148,1135.494849 A 0.833386,0.833386 -0.000000 0 0 11.594620,1135.494849"
         style="fill:none;stroke:#000000"
         id="path60" /><path
         style="fill:none;stroke:#000000"
         d="M 22.0399 1130.11 L 22.0399 1136.91"
         id="path61" /><path
         style="fill:none;stroke:#000000"
         d="M 23.9297 1130.11 L 20.1501 1125.57"
         id="path62" /><path
         style="fill:none;stroke:#000000"
         d="M 2.18037 1134.17 L 2.18037 1135.59"
         id="path63" /><path
         style="fill:none;stroke:#000000"
         d="M 18.2604 1136.91 L 18.2604 1130.11"
         id="path64" /><path
         style="fill:none;stroke:#000000"
         d="M 20.6887 1135.76 L 19.6116 1134"
         id="path65" /><path
         style="fill:none;stroke:#000000"
         d="M 22.0399 1130.11 L 23.9297 1130.11"
         id="path66" /><path
         style="fill:none;stroke:#000000"
         d="M 16.3706 1130.11 L 20.1501 1125.57"
         id="path67" /><path
         style="fill:none;stroke:#000000"
         d="M 1.08053 1135.59 L 1.08053 1134.17"
         id="path68" /><path
         style="fill:none;stroke:#000000"
         d="M 19.6116 1135.76 L 20.6887 1134"
         id="path69" /><path
         style="fill:none;stroke:#000000"
         d="M 2.18037 1135.78 L 1.08053 1133.98"
         id="path70" /><path
         style="fill:none;stroke:#000000"
         d="M 10.5741 1135.49 L 10.5741 1134.18"
         id="path71" /><path
         d="M 1.080529,1135.590289 A 0.898205,0.898205 -0.000000 0 0 2.180372,1135.590289"
         style="fill:none;stroke:#000000"
         id="path72" /><path
         d="M 2.180372,1134.169926 A 0.898205,0.898205 -0.000000 0 0 1.080529,1134.169926"
         style="fill:none;stroke:#000000"
         id="path73" /><path
         style="fill:none;stroke:#000000"
         d="M 11.5946 1135.67 L 10.5741 1134"
         id="path74" /><path
         style="fill:none;stroke:#000000"
         d="M 10.5741 1135.67 L 11.5946 1134"
         id="path75" /><path
         style="fill:none;stroke:#000000"
         d="M 11.5946 1134.18 L 11.5946 1135.49"
         id="path76" /><path
         d="M 19.611553,1135.577147 A 0.879685,0.879685 -0.000000 0 0 20.688718,1135.577147"
         style="fill:none;stroke:#000000"
         id="path77" /><path
         d="M 11.594620,1134.176986 A 0.833386,0.833386 -0.000000 0 0 10.574148,1134.176986"
         style="fill:none;stroke:#000000"
         id="path78" /><path
         style="fill:none;stroke:#000000"
         d="M 20.6887 1134.19 L 20.6887 1135.58"
         id="path79" /><path
         style="fill:none;stroke:#000000"
         d="M 19.6116 1135.58 L 19.6116 1134.19"
         id="path80" /><path
         style="fill:none;stroke:#000000"
         d="M 1.08053 1135.78 L 2.18037 1133.98"
         id="path81" /><path
         d="M 20.688718,1134.186069 A 0.879685,0.879685 -0.000000 0 0 19.611553,1134.186069"
         style="fill:none;stroke:#000000"
         id="path82" /><path
         d="M 0.250000,1122.519685 A 0.250000,0.250000 -0.000000 0, 0 -0.250000,1122.519685 A 0.250000,0.250000 -0.000000 0, 0 0.250000,1122.519685 z"
         style="fill:none;stroke:#000000"
         id="path83" /></symbol></defs><desc
     id="desc1">Produce by Acme CAD Converter</desc><g
     id="g1"
     transform="translate(203.884,-954.9)"><g
       id="g83"><use
         xlink:href="#(Unsaved)"
         style="stroke-width:0.05px"
         transform="matrix(10,0,0,10,0,-10102.7)"
         id="use83" /></g><g
       id="g84" /><g
       id="g85" /><g
       id="g86" /></g></svg>
