%TF.GenerationSoftware,KiCad,Pcbnew,9.0.6*%
%TF.CreationDate,2026-01-28T18:23:47-08:00*%
%TF.ProjectId,PCB_design,5043425f-6465-4736-9967-6e2e6b696361,rev?*%
%TF.SameCoordinates,Original*%
%TF.FileFunction,Copper,L1,Top*%
%TF.FilePolarity,Positive*%
%FSLAX46Y46*%
G04 Gerber Fmt 4.6, Leading zero omitted, Abs format (unit mm)*
G04 Created by KiCad (PCBNEW 9.0.6) date 2026-01-28 18:23:47*
%MOMM*%
%LPD*%
G01*
G04 APERTURE LIST*
G04 Aperture macros list*
%AMRoundRect*
0 Rectangle with rounded corners*
0 $1 Rounding radius*
0 $2 $3 $4 $5 $6 $7 $8 $9 X,Y pos of 4 corners*
0 Add a 4 corners polygon primitive as box body*
4,1,4,$2,$3,$4,$5,$6,$7,$8,$9,$2,$3,0*
0 Add four circle primitives for the rounded corners*
1,1,$1+$1,$2,$3*
1,1,$1+$1,$4,$5*
1,1,$1+$1,$6,$7*
1,1,$1+$1,$8,$9*
0 Add four rect primitives between the rounded corners*
20,1,$1+$1,$2,$3,$4,$5,0*
20,1,$1+$1,$4,$5,$6,$7,0*
20,1,$1+$1,$6,$7,$8,$9,0*
20,1,$1+$1,$8,$9,$2,$3,0*%
G04 Aperture macros list end*
%TA.AperFunction,SMDPad,CuDef*%
%ADD10RoundRect,0.155000X-0.212500X-0.155000X0.212500X-0.155000X0.212500X0.155000X-0.212500X0.155000X0*%
%TD*%
%TA.AperFunction,SMDPad,CuDef*%
%ADD11RoundRect,0.160000X-0.222500X-0.160000X0.222500X-0.160000X0.222500X0.160000X-0.222500X0.160000X0*%
%TD*%
%TA.AperFunction,SMDPad,CuDef*%
%ADD12RoundRect,0.087500X-0.225000X-0.087500X0.225000X-0.087500X0.225000X0.087500X-0.225000X0.087500X0*%
%TD*%
%TA.AperFunction,SMDPad,CuDef*%
%ADD13RoundRect,0.087500X-0.087500X-0.225000X0.087500X-0.225000X0.087500X0.225000X-0.087500X0.225000X0*%
%TD*%
%TA.AperFunction,ComponentPad*%
%ADD14R,1.700000X1.700000*%
%TD*%
%TA.AperFunction,ComponentPad*%
%ADD15C,1.700000*%
%TD*%
%TA.AperFunction,SMDPad,CuDef*%
%ADD16RoundRect,0.150000X-0.512500X-0.150000X0.512500X-0.150000X0.512500X0.150000X-0.512500X0.150000X0*%
%TD*%
%TA.AperFunction,SMDPad,CuDef*%
%ADD17RoundRect,0.160000X-0.197500X-0.160000X0.197500X-0.160000X0.197500X0.160000X-0.197500X0.160000X0*%
%TD*%
%TA.AperFunction,ViaPad*%
%ADD18C,0.600000*%
%TD*%
%TA.AperFunction,Conductor*%
%ADD19C,0.200000*%
%TD*%
G04 APERTURE END LIST*
D10*
%TO.P,C1,1*%
%TO.N,VCC*%
X96432500Y-88500000D03*
%TO.P,C1,2*%
%TO.N,GND*%
X97567500Y-88500000D03*
%TD*%
D11*
%TO.P,D1,1,K*%
%TO.N,GND*%
X104500000Y-91500000D03*
%TO.P,D1,2,A*%
%TO.N,Net-(D1-A)*%
X105645000Y-91500000D03*
%TD*%
D10*
%TO.P,C2,1*%
%TO.N,Net-(U3-OUT)*%
X99000000Y-93000000D03*
%TO.P,C2,2*%
%TO.N,GND*%
X100135000Y-93000000D03*
%TD*%
D12*
%TO.P,U1,1,SDO/SA0*%
%TO.N,/SD0*%
X100337500Y-86837500D03*
%TO.P,U1,2,SDX*%
%TO.N,/SDX*%
X100337500Y-87337500D03*
%TO.P,U1,3,SCX*%
%TO.N,/SCX*%
X100337500Y-87837500D03*
%TO.P,U1,4,INT1*%
%TO.N,/INT1*%
X100337500Y-88337500D03*
D13*
%TO.P,U1,5,VDDIO*%
%TO.N,VCC*%
X101000000Y-88500000D03*
%TO.P,U1,6,GND*%
%TO.N,GND*%
X101500000Y-88500000D03*
%TO.P,U1,7,GND*%
X102000000Y-88500000D03*
D12*
%TO.P,U1,8,VDD*%
%TO.N,VCC*%
X102662500Y-88337500D03*
%TO.P,U1,9,INT2*%
%TO.N,/INT2*%
X102662500Y-87837500D03*
%TO.P,U1,10,OCS_AUX*%
%TO.N,/CS_3V*%
X102662500Y-87337500D03*
%TO.P,U1,11,SDO_AUX*%
%TO.N,unconnected-(U1-SDO_AUX-Pad11)*%
X102662500Y-86837500D03*
D13*
%TO.P,U1,12,CS*%
%TO.N,/CS_3V*%
X102000000Y-86675000D03*
%TO.P,U1,13,SCL*%
%TO.N,/SCL*%
X101500000Y-86675000D03*
%TO.P,U1,14,SDA*%
%TO.N,/SDA*%
X101000000Y-86675000D03*
%TD*%
D14*
%TO.P,J1,1,Pin_1*%
%TO.N,VCC*%
X87500000Y-86460000D03*
D15*
%TO.P,J1,2,Pin_2*%
%TO.N,/SCL*%
X87500000Y-89000000D03*
%TO.P,J1,3,Pin_3*%
%TO.N,/SDA*%
X87500000Y-91540000D03*
%TO.P,J1,4,Pin_4*%
%TO.N,GND*%
X87500000Y-94080000D03*
%TD*%
D16*
%TO.P,U3,1,IN*%
%TO.N,VCC*%
X94500000Y-93050000D03*
%TO.P,U3,2,GND*%
%TO.N,GND*%
X94500000Y-94000000D03*
%TO.P,U3,3,EN*%
%TO.N,VCC*%
X94500000Y-94950000D03*
%TO.P,U3,4,BP*%
%TO.N,unconnected-(U3-BP-Pad4)*%
X96775000Y-94950000D03*
%TO.P,U3,5,OUT*%
%TO.N,Net-(U3-OUT)*%
X96775000Y-93050000D03*
%TD*%
D17*
%TO.P,R2,1*%
%TO.N,VCC*%
X105902500Y-88000000D03*
%TO.P,R2,2*%
%TO.N,Net-(D1-A)*%
X107097500Y-88000000D03*
%TD*%
%TO.P,R1,1*%
%TO.N,VCC*%
X93000000Y-86500000D03*
%TO.P,R1,2*%
%TO.N,/SCL*%
X94195000Y-86500000D03*
%TD*%
D18*
%TO.N,/SCL*%
X96000000Y-86500000D03*
%TO.N,/SDA*%
X99500000Y-86100000D03*
%TD*%
D19*
%TO.N,/SDA*%
X100637499Y-86000000D02*
X99500000Y-86000000D01*
X99500000Y-86000000D02*
X99500000Y-86100000D01*
X101000000Y-86362501D02*
X100637499Y-86000000D01*
X101000000Y-86675000D02*
X101000000Y-86362501D01*
%TO.N,Net-(U3-OUT)*%
X96775000Y-93050000D02*
X98950000Y-93050000D01*
X98950000Y-93050000D02*
X99000000Y-93000000D01*
%TO.N,VCC*%
X94500000Y-93050000D02*
X95050000Y-93050000D01*
X95050000Y-93050000D02*
X95563499Y-93563499D01*
X95050000Y-94950000D02*
X94500000Y-94950000D01*
X95563499Y-93563499D02*
X95563499Y-94436501D01*
X95563499Y-94436501D02*
X95050000Y-94950000D01*
X94500000Y-85000000D02*
X104500000Y-85000000D01*
X93000000Y-86500000D02*
X94500000Y-85000000D01*
X105902500Y-86402500D02*
X105902500Y-88000000D01*
X104500000Y-85000000D02*
X105902500Y-86402500D01*
%TO.N,GND*%
X94420000Y-94080000D02*
X94500000Y-94000000D01*
%TO.N,Net-(D1-A)*%
X107097500Y-88000000D02*
X107097500Y-90047500D01*
X107097500Y-90047500D02*
X105645000Y-91500000D01*
%TO.N,VCC*%
X105902500Y-88000000D02*
X105565000Y-88337500D01*
X105565000Y-88337500D02*
X102662500Y-88337500D01*
X96432500Y-88500000D02*
X95000000Y-88500000D01*
X95000000Y-88500000D02*
X93000000Y-86500000D01*
X93000000Y-86500000D02*
X93000000Y-91550000D01*
X93000000Y-91550000D02*
X94500000Y-93050000D01*
X87500000Y-86460000D02*
X92960000Y-86460000D01*
X92960000Y-86460000D02*
X93000000Y-86500000D01*
%TO.N,/SCL*%
X94195000Y-86500000D02*
X94500000Y-86500000D01*
%TO.N,GND*%
X95162499Y-94000000D02*
X94500000Y-94000000D01*
%TO.N,/SCL*%
X101500000Y-85905326D02*
X101500000Y-86675000D01*
X101094674Y-85500000D02*
X101500000Y-85905326D01*
X97000000Y-85500000D02*
X101094674Y-85500000D01*
X96000000Y-86500000D02*
X97000000Y-85500000D01*
X94195000Y-86500000D02*
X96000000Y-86500000D01*
%TD*%
%TA.AperFunction,Conductor*%
%TO.N,GND*%
G36*
X111442539Y-81020185D02*
G01*
X111488294Y-81072989D01*
X111499500Y-81124500D01*
X111499500Y-99375500D01*
X111479815Y-99442539D01*
X111427011Y-99488294D01*
X111375500Y-99499500D01*
X82124500Y-99499500D01*
X82057461Y-99479815D01*
X82011706Y-99427011D01*
X82000500Y-99375500D01*
X82000500Y-85562135D01*
X86149500Y-85562135D01*
X86149500Y-87357870D01*
X86149501Y-87357876D01*
X86155908Y-87417483D01*
X86206202Y-87552328D01*
X86206206Y-87552335D01*
X86292452Y-87667544D01*
X86292455Y-87667547D01*
X86407664Y-87753793D01*
X86407671Y-87753797D01*
X86539082Y-87802810D01*
X86595016Y-87844681D01*
X86619433Y-87910145D01*
X86604582Y-87978418D01*
X86583431Y-88006673D01*
X86469889Y-88120215D01*
X86344951Y-88292179D01*
X86248444Y-88481585D01*
X86182753Y-88683760D01*
X86149500Y-88893713D01*
X86149500Y-89106286D01*
X86182753Y-89316239D01*
X86248444Y-89518414D01*
X86344951Y-89707820D01*
X86469890Y-89879786D01*
X86620213Y-90030109D01*
X86792182Y-90155050D01*
X86800946Y-90159516D01*
X86851742Y-90207491D01*
X86868536Y-90275312D01*
X86845998Y-90341447D01*
X86800946Y-90380484D01*
X86792182Y-90384949D01*
X86620213Y-90509890D01*
X86469890Y-90660213D01*
X86344951Y-90832179D01*
X86248444Y-91021585D01*
X86248443Y-91021587D01*
X86248443Y-91021588D01*
X86233642Y-91067140D01*
X86182753Y-91223760D01*
X86149500Y-91433713D01*
X86149500Y-91646286D01*
X86170667Y-91779933D01*
X86182754Y-91856243D01*
X86241677Y-92037590D01*
X86248444Y-92058414D01*
X86344951Y-92247820D01*
X86469890Y-92419786D01*
X86620213Y-92570109D01*
X86792179Y-92695048D01*
X86792181Y-92695049D01*
X86792184Y-92695051D01*
X86801493Y-92699794D01*
X86852290Y-92747766D01*
X86869087Y-92815587D01*
X86846552Y-92881722D01*
X86801505Y-92920760D01*
X86792446Y-92925376D01*
X86792440Y-92925380D01*
X86738282Y-92964727D01*
X86738282Y-92964728D01*
X87370591Y-93597037D01*
X87307007Y-93614075D01*
X87192993Y-93679901D01*
X87099901Y-93772993D01*
X87034075Y-93887007D01*
X87017037Y-93950591D01*
X86384728Y-93318282D01*
X86384727Y-93318282D01*
X86345380Y-93372439D01*
X86248904Y-93561782D01*
X86183242Y-93763869D01*
X86183242Y-93763872D01*
X86150000Y-93973753D01*
X86150000Y-94186246D01*
X86183242Y-94396127D01*
X86183242Y-94396130D01*
X86248904Y-94598217D01*
X86345375Y-94787550D01*
X86384728Y-94841716D01*
X87017037Y-94209408D01*
X87034075Y-94272993D01*
X87099901Y-94387007D01*
X87192993Y-94480099D01*
X87307007Y-94545925D01*
X87370590Y-94562962D01*
X86738282Y-95195269D01*
X86738282Y-95195270D01*
X86792449Y-95234624D01*
X86981782Y-95331095D01*
X87183870Y-95396757D01*
X87393754Y-95430000D01*
X87606246Y-95430000D01*
X87816127Y-95396757D01*
X87816130Y-95396757D01*
X88018217Y-95331095D01*
X88207554Y-95234622D01*
X88261716Y-95195270D01*
X88261717Y-95195270D01*
X87629408Y-94562962D01*
X87692993Y-94545925D01*
X87807007Y-94480099D01*
X87900099Y-94387007D01*
X87965925Y-94272993D01*
X87982962Y-94209408D01*
X88615270Y-94841717D01*
X88615270Y-94841716D01*
X88654622Y-94787554D01*
X88751095Y-94598217D01*
X88816757Y-94396130D01*
X88816757Y-94396127D01*
X88850000Y-94186246D01*
X88850000Y-93973753D01*
X88816757Y-93763872D01*
X88816757Y-93763869D01*
X88751095Y-93561782D01*
X88654624Y-93372449D01*
X88615270Y-93318282D01*
X88615269Y-93318282D01*
X87982962Y-93950590D01*
X87965925Y-93887007D01*
X87900099Y-93772993D01*
X87807007Y-93679901D01*
X87692993Y-93614075D01*
X87629409Y-93597037D01*
X88261716Y-92964728D01*
X88207547Y-92925373D01*
X88207547Y-92925372D01*
X88198500Y-92920763D01*
X88147706Y-92872788D01*
X88130912Y-92804966D01*
X88153451Y-92738832D01*
X88198508Y-92699793D01*
X88207816Y-92695051D01*
X88287007Y-92637515D01*
X88379786Y-92570109D01*
X88379788Y-92570106D01*
X88379792Y-92570104D01*
X88530104Y-92419792D01*
X88530106Y-92419788D01*
X88530109Y-92419786D01*
X88651720Y-92252401D01*
X88655051Y-92247816D01*
X88751557Y-92058412D01*
X88817246Y-91856243D01*
X88850500Y-91646287D01*
X88850500Y-91433713D01*
X88817246Y-91223757D01*
X88751557Y-91021588D01*
X88655051Y-90832184D01*
X88655049Y-90832181D01*
X88655048Y-90832179D01*
X88530109Y-90660213D01*
X88379786Y-90509890D01*
X88207820Y-90384951D01*
X88207115Y-90384591D01*
X88199054Y-90380485D01*
X88148259Y-90332512D01*
X88131463Y-90264692D01*
X88153999Y-90198556D01*
X88199054Y-90159515D01*
X88207816Y-90155051D01*
X88247036Y-90126556D01*
X88379786Y-90030109D01*
X88379788Y-90030106D01*
X88379792Y-90030104D01*
X88530104Y-89879792D01*
X88530106Y-89879788D01*
X88530109Y-89879786D01*
X88655048Y-89707820D01*
X88655047Y-89707820D01*
X88655051Y-89707816D01*
X88751557Y-89518412D01*
X88817246Y-89316243D01*
X88850500Y-89106287D01*
X88850500Y-88893713D01*
X88817246Y-88683757D01*
X88751557Y-88481588D01*
X88655051Y-88292184D01*
X88655049Y-88292181D01*
X88655048Y-88292179D01*
X88530109Y-88120213D01*
X88416569Y-88006673D01*
X88383084Y-87945350D01*
X88388068Y-87875658D01*
X88429940Y-87819725D01*
X88460915Y-87802810D01*
X88592331Y-87753796D01*
X88707546Y-87667546D01*
X88793796Y-87552331D01*
X88844091Y-87417483D01*
X88850500Y-87357873D01*
X88850500Y-87184500D01*
X88870185Y-87117461D01*
X88922989Y-87071706D01*
X88974500Y-87060500D01*
X92217549Y-87060500D01*
X92246985Y-87069143D01*
X92276975Y-87075667D01*
X92281991Y-87079422D01*
X92284588Y-87080185D01*
X92305229Y-87096818D01*
X92363180Y-87154768D01*
X92396666Y-87216091D01*
X92399500Y-87242450D01*
X92399500Y-91463330D01*
X92399499Y-91463348D01*
X92399499Y-91629054D01*
X92399498Y-91629054D01*
X92440423Y-91781784D01*
X92440423Y-91781785D01*
X92469320Y-91831836D01*
X92519477Y-91918712D01*
X92519481Y-91918717D01*
X92638349Y-92037585D01*
X92638355Y-92037590D01*
X93303733Y-92702968D01*
X93337218Y-92764291D01*
X93339670Y-92800377D01*
X93337000Y-92834298D01*
X93337000Y-93265701D01*
X93339901Y-93302567D01*
X93339902Y-93302573D01*
X93385754Y-93460393D01*
X93385756Y-93460399D01*
X93386926Y-93462377D01*
X93387369Y-93464126D01*
X93388853Y-93467554D01*
X93388299Y-93467793D01*
X93404103Y-93530102D01*
X93388749Y-93582395D01*
X93389317Y-93582641D01*
X93387327Y-93587239D01*
X93386928Y-93588599D01*
X93386222Y-93589791D01*
X93386216Y-93589806D01*
X93340400Y-93747505D01*
X93340399Y-93747511D01*
X93340204Y-93749998D01*
X93340205Y-93750000D01*
X93605685Y-93750000D01*
X93668806Y-93767268D01*
X93727102Y-93801744D01*
X93747176Y-93807576D01*
X93884926Y-93847597D01*
X93884929Y-93847597D01*
X93884931Y-93847598D01*
X93921806Y-93850500D01*
X94376000Y-93850500D01*
X94384685Y-93853050D01*
X94393647Y-93851762D01*
X94417687Y-93862740D01*
X94443039Y-93870185D01*
X94448966Y-93877025D01*
X94457203Y-93880787D01*
X94471492Y-93903021D01*
X94488794Y-93922989D01*
X94491081Y-93933503D01*
X94494977Y-93939565D01*
X94500000Y-93974500D01*
X94500000Y-94025500D01*
X94480315Y-94092539D01*
X94427511Y-94138294D01*
X94376000Y-94149500D01*
X93921798Y-94149500D01*
X93884932Y-94152401D01*
X93884926Y-94152402D01*
X93727106Y-94198254D01*
X93727103Y-94198255D01*
X93668806Y-94232732D01*
X93605685Y-94250000D01*
X93340205Y-94250000D01*
X93340204Y-94250001D01*
X93340399Y-94252488D01*
X93340400Y-94252494D01*
X93386216Y-94410193D01*
X93386220Y-94410203D01*
X93386927Y-94411398D01*
X93387195Y-94412454D01*
X93389316Y-94417356D01*
X93388524Y-94417698D01*
X93404103Y-94479123D01*
X93388493Y-94532284D01*
X93388855Y-94532441D01*
X93387587Y-94535369D01*
X93386927Y-94537620D01*
X93385759Y-94539594D01*
X93385754Y-94539607D01*
X93339902Y-94697426D01*
X93339901Y-94697432D01*
X93337000Y-94734298D01*
X93337000Y-95165701D01*
X93339901Y-95202567D01*
X93339902Y-95202573D01*
X93385754Y-95360393D01*
X93385755Y-95360396D01*
X93469232Y-95501550D01*
X93469418Y-95501864D01*
X93469423Y-95501870D01*
X93585629Y-95618076D01*
X93585633Y-95618079D01*
X93585635Y-95618081D01*
X93727102Y-95701744D01*
X93768724Y-95713836D01*
X93884926Y-95747597D01*
X93884929Y-95747597D01*
X93884931Y-95747598D01*
X93921806Y-95750500D01*
X93921814Y-95750500D01*
X95078186Y-95750500D01*
X95078194Y-95750500D01*
X95115069Y-95747598D01*
X95115071Y-95747597D01*
X95115073Y-95747597D01*
X95156691Y-95735505D01*
X95272898Y-95701744D01*
X95414365Y-95618081D01*
X95530581Y-95501865D01*
X95530767Y-95501549D01*
X95530977Y-95501353D01*
X95535361Y-95495702D01*
X95536272Y-95496409D01*
X95581836Y-95453866D01*
X95650577Y-95441362D01*
X95715167Y-95468006D01*
X95739355Y-95495921D01*
X95739639Y-95495702D01*
X95743679Y-95500911D01*
X95744232Y-95501548D01*
X95744419Y-95501865D01*
X95744421Y-95501867D01*
X95744423Y-95501870D01*
X95860629Y-95618076D01*
X95860633Y-95618079D01*
X95860635Y-95618081D01*
X96002102Y-95701744D01*
X96043724Y-95713836D01*
X96159926Y-95747597D01*
X96159929Y-95747597D01*
X96159931Y-95747598D01*
X96196806Y-95750500D01*
X96196814Y-95750500D01*
X97353186Y-95750500D01*
X97353194Y-95750500D01*
X97390069Y-95747598D01*
X97390071Y-95747597D01*
X97390073Y-95747597D01*
X97431691Y-95735505D01*
X97547898Y-95701744D01*
X97689365Y-95618081D01*
X97805581Y-95501865D01*
X97889244Y-95360398D01*
X97935098Y-95202569D01*
X97938000Y-95165694D01*
X97938000Y-94734306D01*
X97935098Y-94697431D01*
X97889244Y-94539602D01*
X97805581Y-94398135D01*
X97805579Y-94398133D01*
X97805576Y-94398129D01*
X97689370Y-94281923D01*
X97689362Y-94281917D01*
X97547896Y-94198255D01*
X97547893Y-94198254D01*
X97390073Y-94152402D01*
X97390067Y-94152401D01*
X97353201Y-94149500D01*
X97353194Y-94149500D01*
X96287999Y-94149500D01*
X96279313Y-94146949D01*
X96270352Y-94148238D01*
X96246311Y-94137259D01*
X96220960Y-94129815D01*
X96215032Y-94122974D01*
X96206796Y-94119213D01*
X96192506Y-94096978D01*
X96175205Y-94077011D01*
X96172917Y-94066496D01*
X96169022Y-94060435D01*
X96163999Y-94025500D01*
X96163999Y-93974500D01*
X96183684Y-93907461D01*
X96236488Y-93861706D01*
X96287999Y-93850500D01*
X97353186Y-93850500D01*
X97353194Y-93850500D01*
X97390069Y-93847598D01*
X97390071Y-93847597D01*
X97390073Y-93847597D01*
X97431691Y-93835505D01*
X97547898Y-93801744D01*
X97689365Y-93718081D01*
X97720626Y-93686820D01*
X97781948Y-93653334D01*
X97808308Y-93650500D01*
X98305846Y-93650500D01*
X98372885Y-93670185D01*
X98381844Y-93676519D01*
X98382544Y-93677062D01*
X98399044Y-93686820D01*
X98525100Y-93761370D01*
X98533702Y-93763869D01*
X98684137Y-93807575D01*
X98684140Y-93807575D01*
X98684142Y-93807576D01*
X98721297Y-93810500D01*
X99278702Y-93810499D01*
X99315858Y-93807576D01*
X99474900Y-93761370D01*
X99504869Y-93743645D01*
X99572588Y-93726461D01*
X99631113Y-93743645D01*
X99660300Y-93760906D01*
X99660305Y-93760908D01*
X99819216Y-93807077D01*
X99819222Y-93807078D01*
X99856342Y-93809999D01*
X99856358Y-93810000D01*
X99885000Y-93810000D01*
X100385000Y-93810000D01*
X100413642Y-93810000D01*
X100413657Y-93809999D01*
X100450777Y-93807078D01*
X100450783Y-93807077D01*
X100609694Y-93760908D01*
X100609697Y-93760907D01*
X100752142Y-93676666D01*
X100752150Y-93676660D01*
X100869160Y-93559650D01*
X100869166Y-93559642D01*
X100953407Y-93417197D01*
X100953409Y-93417194D01*
X100999578Y-93258281D01*
X101000230Y-93250000D01*
X100385000Y-93250000D01*
X100385000Y-93810000D01*
X99885000Y-93810000D01*
X99885000Y-92750000D01*
X100385000Y-92750000D01*
X101000230Y-92750000D01*
X100999578Y-92741718D01*
X100953409Y-92582805D01*
X100953407Y-92582802D01*
X100869166Y-92440357D01*
X100869160Y-92440349D01*
X100752150Y-92323339D01*
X100752142Y-92323333D01*
X100609697Y-92239092D01*
X100609694Y-92239091D01*
X100450783Y-92192922D01*
X100450777Y-92192921D01*
X100413657Y-92190000D01*
X100385000Y-92190000D01*
X100385000Y-92750000D01*
X99885000Y-92750000D01*
X99885000Y-92190000D01*
X99856342Y-92190000D01*
X99819222Y-92192921D01*
X99819216Y-92192922D01*
X99660304Y-92239091D01*
X99660300Y-92239093D01*
X99631109Y-92256356D01*
X99563384Y-92273536D01*
X99504869Y-92256354D01*
X99490432Y-92247816D01*
X99474900Y-92238630D01*
X99474899Y-92238629D01*
X99474898Y-92238629D01*
X99474895Y-92238628D01*
X99315862Y-92192424D01*
X99315856Y-92192423D01*
X99278703Y-92189500D01*
X98721309Y-92189500D01*
X98721284Y-92189501D01*
X98684145Y-92192423D01*
X98525099Y-92238630D01*
X98382549Y-92322934D01*
X98382540Y-92322941D01*
X98292301Y-92413181D01*
X98230978Y-92446666D01*
X98204620Y-92449500D01*
X97808308Y-92449500D01*
X97741269Y-92429815D01*
X97720626Y-92413180D01*
X97689370Y-92381923D01*
X97689362Y-92381917D01*
X97547896Y-92298255D01*
X97547893Y-92298254D01*
X97390073Y-92252402D01*
X97390067Y-92252401D01*
X97353201Y-92249500D01*
X97353194Y-92249500D01*
X96196806Y-92249500D01*
X96196798Y-92249500D01*
X96159932Y-92252401D01*
X96159926Y-92252402D01*
X96002106Y-92298254D01*
X96002103Y-92298255D01*
X95860637Y-92381917D01*
X95860629Y-92381923D01*
X95744423Y-92498129D01*
X95744414Y-92498140D01*
X95744229Y-92498455D01*
X95744019Y-92498650D01*
X95739639Y-92504298D01*
X95738727Y-92503591D01*
X95693157Y-92546136D01*
X95624415Y-92558637D01*
X95559827Y-92531988D01*
X95535643Y-92504078D01*
X95535361Y-92504298D01*
X95531323Y-92499092D01*
X95530771Y-92498455D01*
X95530585Y-92498140D01*
X95530576Y-92498129D01*
X95414370Y-92381923D01*
X95414362Y-92381917D01*
X95272896Y-92298255D01*
X95272893Y-92298254D01*
X95115073Y-92252402D01*
X95115067Y-92252401D01*
X95078201Y-92249500D01*
X95078194Y-92249500D01*
X94600097Y-92249500D01*
X94533058Y-92229815D01*
X94512416Y-92213181D01*
X94049235Y-91750000D01*
X103620831Y-91750000D01*
X103623543Y-91779844D01*
X103671224Y-91932859D01*
X103671226Y-91932863D01*
X103754139Y-92070019D01*
X103754142Y-92070023D01*
X103867476Y-92183357D01*
X103867480Y-92183360D01*
X104004636Y-92266273D01*
X104004640Y-92266275D01*
X104157657Y-92313956D01*
X104157656Y-92313956D01*
X104224163Y-92320000D01*
X104250000Y-92320000D01*
X104250000Y-91750000D01*
X103620831Y-91750000D01*
X94049235Y-91750000D01*
X93636819Y-91337584D01*
X93603334Y-91276261D01*
X93600510Y-91250000D01*
X103620831Y-91250000D01*
X104250000Y-91250000D01*
X104250000Y-90680000D01*
X104224163Y-90680000D01*
X104157656Y-90686043D01*
X104004640Y-90733724D01*
X104004636Y-90733726D01*
X103867480Y-90816639D01*
X103867476Y-90816642D01*
X103754142Y-90929976D01*
X103754139Y-90929980D01*
X103671226Y-91067136D01*
X103671224Y-91067140D01*
X103623543Y-91220155D01*
X103620831Y-91250000D01*
X93600510Y-91250000D01*
X93600500Y-91249903D01*
X93600500Y-88249097D01*
X93620185Y-88182058D01*
X93672989Y-88136303D01*
X93742147Y-88126359D01*
X93805703Y-88155384D01*
X93812181Y-88161416D01*
X94515139Y-88864374D01*
X94515149Y-88864385D01*
X94519479Y-88868715D01*
X94519480Y-88868716D01*
X94631284Y-88980520D01*
X94661325Y-88997864D01*
X94687542Y-89013000D01*
X94687541Y-89013000D01*
X94687544Y-89013001D01*
X94768209Y-89059574D01*
X94768210Y-89059574D01*
X94768215Y-89059577D01*
X94920943Y-89100500D01*
X95079057Y-89100500D01*
X95687121Y-89100500D01*
X95754160Y-89120185D01*
X95774803Y-89136820D01*
X95815040Y-89177058D01*
X95815044Y-89177061D01*
X95815046Y-89177063D01*
X95957600Y-89261370D01*
X95976290Y-89266800D01*
X96116637Y-89307575D01*
X96116640Y-89307575D01*
X96116642Y-89307576D01*
X96153797Y-89310500D01*
X96711202Y-89310499D01*
X96748358Y-89307576D01*
X96907400Y-89261370D01*
X96937369Y-89243645D01*
X97005088Y-89226461D01*
X97063613Y-89243645D01*
X97092800Y-89260906D01*
X97092805Y-89260908D01*
X97251716Y-89307077D01*
X97251722Y-89307078D01*
X97288842Y-89309999D01*
X97288858Y-89310000D01*
X97317500Y-89310000D01*
X97817500Y-89310000D01*
X97846142Y-89310000D01*
X97846157Y-89309999D01*
X97883277Y-89307078D01*
X97883283Y-89307077D01*
X98042194Y-89260908D01*
X98042197Y-89260907D01*
X98184642Y-89176666D01*
X98184650Y-89176660D01*
X98301660Y-89059650D01*
X98301666Y-89059642D01*
X98385907Y-88917197D01*
X98385909Y-88917194D01*
X98432078Y-88758281D01*
X98432730Y-88750000D01*
X97817500Y-88750000D01*
X97817500Y-89310000D01*
X97317500Y-89310000D01*
X97317500Y-88250000D01*
X97817500Y-88250000D01*
X98432730Y-88250000D01*
X98432078Y-88241718D01*
X98385909Y-88082805D01*
X98385907Y-88082802D01*
X98301666Y-87940357D01*
X98301660Y-87940349D01*
X98184650Y-87823339D01*
X98184642Y-87823333D01*
X98042197Y-87739092D01*
X98042194Y-87739091D01*
X97883283Y-87692922D01*
X97883277Y-87692921D01*
X97846157Y-87690000D01*
X97817500Y-87690000D01*
X97817500Y-88250000D01*
X97317500Y-88250000D01*
X97317500Y-87690000D01*
X97288842Y-87690000D01*
X97251722Y-87692921D01*
X97251716Y-87692922D01*
X97092804Y-87739091D01*
X97092800Y-87739093D01*
X97063609Y-87756356D01*
X96995884Y-87773536D01*
X96937369Y-87756354D01*
X96933045Y-87753797D01*
X96907400Y-87738630D01*
X96907399Y-87738629D01*
X96907398Y-87738629D01*
X96907395Y-87738628D01*
X96748362Y-87692424D01*
X96748356Y-87692423D01*
X96711203Y-87689500D01*
X96153809Y-87689500D01*
X96153784Y-87689501D01*
X96116645Y-87692423D01*
X95957599Y-87738630D01*
X95815049Y-87822934D01*
X95815040Y-87822941D01*
X95774803Y-87863180D01*
X95713480Y-87896666D01*
X95687121Y-87899500D01*
X95300097Y-87899500D01*
X95233058Y-87879815D01*
X95212416Y-87863181D01*
X94746572Y-87397337D01*
X94713087Y-87336014D01*
X94718071Y-87266322D01*
X94755331Y-87214014D01*
X94762327Y-87208240D01*
X94802835Y-87183753D01*
X94853963Y-87132624D01*
X94858528Y-87128858D01*
X94885422Y-87117350D01*
X94911092Y-87103334D01*
X94920561Y-87102315D01*
X94922765Y-87101373D01*
X94925322Y-87101803D01*
X94937450Y-87100500D01*
X95420234Y-87100500D01*
X95487273Y-87120185D01*
X95489125Y-87121398D01*
X95620814Y-87209390D01*
X95620827Y-87209397D01*
X95766498Y-87269735D01*
X95766503Y-87269737D01*
X95921153Y-87300499D01*
X95921156Y-87300500D01*
X95921158Y-87300500D01*
X96078844Y-87300500D01*
X96078845Y-87300499D01*
X96233497Y-87269737D01*
X96379179Y-87209394D01*
X96510289Y-87121789D01*
X96621789Y-87010289D01*
X96709394Y-86879179D01*
X96769737Y-86733497D01*
X96789113Y-86636085D01*
X96800638Y-86578150D01*
X96833023Y-86516239D01*
X96834514Y-86514720D01*
X97212417Y-86136819D01*
X97273740Y-86103334D01*
X97300098Y-86100500D01*
X98582152Y-86100500D01*
X98649191Y-86120185D01*
X98694946Y-86172989D01*
X98703769Y-86200308D01*
X98730261Y-86333491D01*
X98730264Y-86333501D01*
X98790602Y-86479172D01*
X98790609Y-86479185D01*
X98878210Y-86610288D01*
X98878213Y-86610292D01*
X98989707Y-86721786D01*
X98989711Y-86721789D01*
X99120814Y-86809390D01*
X99120827Y-86809397D01*
X99266498Y-86869735D01*
X99266503Y-86869737D01*
X99313936Y-86879172D01*
X99427132Y-86901689D01*
X99426813Y-86903291D01*
X99447133Y-86911492D01*
X99475630Y-86920229D01*
X99479181Y-86924427D01*
X99484280Y-86926485D01*
X99501501Y-86950813D01*
X99520754Y-86973573D01*
X99522818Y-86980927D01*
X99524649Y-86983513D01*
X99530294Y-87007553D01*
X99538689Y-87071313D01*
X99538689Y-87103686D01*
X99524500Y-87211452D01*
X99524500Y-87463547D01*
X99538689Y-87571314D01*
X99538689Y-87603686D01*
X99524500Y-87711452D01*
X99524500Y-87963547D01*
X99538689Y-88071314D01*
X99538689Y-88103686D01*
X99524500Y-88211452D01*
X99524500Y-88463547D01*
X99536271Y-88552952D01*
X99538559Y-88570329D01*
X99539635Y-88578497D01*
X99539636Y-88578502D01*
X99598882Y-88721536D01*
X99598883Y-88721537D01*
X99693133Y-88844367D01*
X99815963Y-88938617D01*
X99815962Y-88938617D01*
X99894189Y-88971019D01*
X99959001Y-88997865D01*
X100073960Y-89013000D01*
X100331182Y-89013000D01*
X100398221Y-89032685D01*
X100429557Y-89061513D01*
X100493133Y-89144367D01*
X100615963Y-89238617D01*
X100615962Y-89238617D01*
X100669776Y-89260907D01*
X100759001Y-89297865D01*
X100873960Y-89313000D01*
X100873967Y-89313000D01*
X101126033Y-89313000D01*
X101126040Y-89313000D01*
X101240999Y-89297865D01*
X101384037Y-89238617D01*
X101475517Y-89168422D01*
X101540682Y-89143230D01*
X101609127Y-89157268D01*
X101659117Y-89206082D01*
X101675000Y-89266800D01*
X101675000Y-89306048D01*
X101733819Y-89298306D01*
X101766186Y-89298307D01*
X101824999Y-89306049D01*
X101825000Y-89306049D01*
X101825000Y-88947617D01*
X101829000Y-88933993D01*
X101828156Y-88919819D01*
X101838648Y-88901134D01*
X101844685Y-88880578D01*
X101855414Y-88871280D01*
X101862368Y-88858899D01*
X101881297Y-88848853D01*
X101897489Y-88834823D01*
X101911542Y-88832802D01*
X101924085Y-88826146D01*
X101945437Y-88827928D01*
X101966647Y-88824879D01*
X101980920Y-88830890D01*
X101993713Y-88831959D01*
X102024482Y-88849238D01*
X102126486Y-88927509D01*
X102167689Y-88983936D01*
X102175000Y-89025884D01*
X102175000Y-89306048D01*
X102240869Y-89297378D01*
X102383782Y-89238182D01*
X102383786Y-89238180D01*
X102506509Y-89144010D01*
X102506510Y-89144009D01*
X102569813Y-89061513D01*
X102626241Y-89020311D01*
X102668188Y-89013000D01*
X102926033Y-89013000D01*
X102926040Y-89013000D01*
X103040999Y-88997865D01*
X103162739Y-88947438D01*
X103210191Y-88938000D01*
X105478331Y-88938000D01*
X105478347Y-88938001D01*
X105485943Y-88938001D01*
X105644054Y-88938001D01*
X105644057Y-88938001D01*
X105796785Y-88897077D01*
X105846904Y-88868139D01*
X105900649Y-88837109D01*
X105900667Y-88837105D01*
X105962646Y-88820499D01*
X106153388Y-88820499D01*
X106219926Y-88814453D01*
X106219927Y-88814452D01*
X106219933Y-88814452D01*
X106336110Y-88778250D01*
X106405970Y-88777098D01*
X106465362Y-88813899D01*
X106495430Y-88876968D01*
X106497000Y-88896635D01*
X106497000Y-89747402D01*
X106477315Y-89814441D01*
X106460681Y-89835083D01*
X105652582Y-90643181D01*
X105591259Y-90676666D01*
X105564902Y-90679500D01*
X105369111Y-90679500D01*
X105302573Y-90685546D01*
X105302566Y-90685548D01*
X105149433Y-90733265D01*
X105149427Y-90733268D01*
X105136162Y-90741287D01*
X105068607Y-90759121D01*
X105007868Y-90741286D01*
X104995361Y-90733725D01*
X104995359Y-90733724D01*
X104842342Y-90686043D01*
X104842343Y-90686043D01*
X104775837Y-90680000D01*
X104750000Y-90680000D01*
X104750000Y-92320000D01*
X104775837Y-92320000D01*
X104842338Y-92313957D01*
X104995361Y-92266273D01*
X105007861Y-92258717D01*
X105075415Y-92240878D01*
X105136164Y-92258713D01*
X105149431Y-92266733D01*
X105149433Y-92266734D01*
X105203600Y-92283612D01*
X105302567Y-92314452D01*
X105369119Y-92320500D01*
X105920880Y-92320499D01*
X105920888Y-92320499D01*
X105987426Y-92314453D01*
X105987427Y-92314452D01*
X105987433Y-92314452D01*
X106140569Y-92266733D01*
X106262668Y-92192922D01*
X106277829Y-92183757D01*
X106277830Y-92183755D01*
X106277835Y-92183753D01*
X106391253Y-92070335D01*
X106398460Y-92058414D01*
X106474232Y-91933070D01*
X106474233Y-91933069D01*
X106474299Y-91932859D01*
X106505778Y-91831836D01*
X106521952Y-91779933D01*
X106528000Y-91713381D01*
X106527999Y-91517596D01*
X106547683Y-91450557D01*
X106564313Y-91429920D01*
X107456006Y-90538228D01*
X107456011Y-90538224D01*
X107466214Y-90528020D01*
X107466216Y-90528020D01*
X107578020Y-90416216D01*
X107621188Y-90341447D01*
X107635160Y-90317247D01*
X107635161Y-90317245D01*
X107657074Y-90279290D01*
X107657073Y-90279290D01*
X107657077Y-90279285D01*
X107698000Y-90126558D01*
X107698000Y-89968443D01*
X107698000Y-88742450D01*
X107717685Y-88675411D01*
X107734319Y-88654769D01*
X107818753Y-88570335D01*
X107901733Y-88433069D01*
X107949452Y-88279933D01*
X107955500Y-88213381D01*
X107955499Y-87786620D01*
X107955499Y-87786611D01*
X107949453Y-87720073D01*
X107949452Y-87720070D01*
X107949452Y-87720067D01*
X107913186Y-87603686D01*
X107901734Y-87566933D01*
X107901732Y-87566929D01*
X107818757Y-87429670D01*
X107818753Y-87429665D01*
X107705334Y-87316246D01*
X107705329Y-87316242D01*
X107568070Y-87233267D01*
X107568066Y-87233265D01*
X107414933Y-87185548D01*
X107414935Y-87185548D01*
X107388312Y-87183128D01*
X107348381Y-87179500D01*
X107348378Y-87179500D01*
X106846611Y-87179500D01*
X106780073Y-87185546D01*
X106780072Y-87185546D01*
X106663889Y-87221750D01*
X106594029Y-87222900D01*
X106534637Y-87186099D01*
X106504569Y-87123030D01*
X106503000Y-87103364D01*
X106503000Y-86491560D01*
X106503001Y-86491547D01*
X106503001Y-86323444D01*
X106503001Y-86323443D01*
X106462077Y-86170716D01*
X106429036Y-86113486D01*
X106383024Y-86033790D01*
X106383018Y-86033782D01*
X104987590Y-84638355D01*
X104987588Y-84638352D01*
X104868717Y-84519481D01*
X104868716Y-84519480D01*
X104781904Y-84469360D01*
X104781904Y-84469359D01*
X104781900Y-84469358D01*
X104731785Y-84440423D01*
X104579057Y-84399499D01*
X104420943Y-84399499D01*
X104413347Y-84399499D01*
X104413331Y-84399500D01*
X94420940Y-84399500D01*
X94380019Y-84410464D01*
X94380019Y-84410465D01*
X94342751Y-84420451D01*
X94268214Y-84440423D01*
X94268209Y-84440426D01*
X94131290Y-84519475D01*
X94131282Y-84519481D01*
X94019478Y-84631286D01*
X93007582Y-85643181D01*
X92946259Y-85676666D01*
X92919902Y-85679500D01*
X92749111Y-85679500D01*
X92682573Y-85685546D01*
X92682566Y-85685548D01*
X92529433Y-85733265D01*
X92529429Y-85733267D01*
X92392170Y-85816242D01*
X92392165Y-85816246D01*
X92385231Y-85823181D01*
X92323908Y-85856666D01*
X92297550Y-85859500D01*
X88974499Y-85859500D01*
X88907460Y-85839815D01*
X88861705Y-85787011D01*
X88850499Y-85735500D01*
X88850499Y-85562129D01*
X88850498Y-85562123D01*
X88850497Y-85562116D01*
X88844091Y-85502517D01*
X88793796Y-85367669D01*
X88793795Y-85367668D01*
X88793793Y-85367664D01*
X88707547Y-85252455D01*
X88707544Y-85252452D01*
X88592335Y-85166206D01*
X88592328Y-85166202D01*
X88457482Y-85115908D01*
X88457483Y-85115908D01*
X88397883Y-85109501D01*
X88397881Y-85109500D01*
X88397873Y-85109500D01*
X88397864Y-85109500D01*
X86602129Y-85109500D01*
X86602123Y-85109501D01*
X86542516Y-85115908D01*
X86407671Y-85166202D01*
X86407664Y-85166206D01*
X86292455Y-85252452D01*
X86292452Y-85252455D01*
X86206206Y-85367664D01*
X86206202Y-85367671D01*
X86155908Y-85502517D01*
X86149501Y-85562116D01*
X86149501Y-85562123D01*
X86149500Y-85562135D01*
X82000500Y-85562135D01*
X82000500Y-81124500D01*
X82020185Y-81057461D01*
X82072989Y-81011706D01*
X82124500Y-81000500D01*
X111375500Y-81000500D01*
X111442539Y-81020185D01*
G37*
%TD.AperFunction*%
%TD*%
M02*
