%TF.GenerationSoftware,KiCad,Pcbnew,9.0.6*%
%TF.CreationDate,2026-03-07T11:22:51-08:00*%
%TF.ProjectId,sensor_PCB,73656e73-6f72-45f5-9043-422e6b696361,rev?*%
%TF.SameCoordinates,Original*%
%TF.FileFunction,Copper,L1,Top*%
%TF.FilePolarity,Positive*%
%FSLAX46Y46*%
G04 Gerber Fmt 4.6, Leading zero omitted, Abs format (unit mm)*
G04 Created by KiCad (PCBNEW 9.0.6) date 2026-03-07 11:22:51*
%MOMM*%
%LPD*%
G01*
G04 APERTURE LIST*
G04 Aperture macros list*
%AMRoundRect*
0 Rectangle with rounded corners*
0 $1 Rounding radius*
0 $2 $3 $4 $5 $6 $7 $8 $9 X,Y pos of 4 corners*
0 Add a 4 corners polygon primitive as box body*
4,1,4,$2,$3,$4,$5,$6,$7,$8,$9,$2,$3,0*
0 Add four circle primitives for the rounded corners*
1,1,$1+$1,$2,$3*
1,1,$1+$1,$4,$5*
1,1,$1+$1,$6,$7*
1,1,$1+$1,$8,$9*
0 Add four rect primitives between the rounded corners*
20,1,$1+$1,$2,$3,$4,$5,0*
20,1,$1+$1,$4,$5,$6,$7,0*
20,1,$1+$1,$6,$7,$8,$9,0*
20,1,$1+$1,$8,$9,$2,$3,0*%
G04 Aperture macros list end*
%TA.AperFunction,ComponentPad*%
%ADD10O,3.556000X1.778000*%
%TD*%
%TA.AperFunction,ComponentPad*%
%ADD11C,1.905000*%
%TD*%
%TA.AperFunction,ComponentPad*%
%ADD12RoundRect,0.250000X0.350000X0.625000X-0.350000X0.625000X-0.350000X-0.625000X0.350000X-0.625000X0*%
%TD*%
%TA.AperFunction,ComponentPad*%
%ADD13O,1.200000X1.750000*%
%TD*%
%TA.AperFunction,ComponentPad*%
%ADD14R,1.700000X1.700000*%
%TD*%
%TA.AperFunction,ComponentPad*%
%ADD15C,1.700000*%
%TD*%
%TA.AperFunction,Conductor*%
%ADD16C,0.500000*%
%TD*%
%TA.AperFunction,Conductor*%
%ADD17C,0.200000*%
%TD*%
G04 APERTURE END LIST*
D10*
%TO.P,U1,1,GPIO1_A0_D0*%
%TO.N,unconnected-(U1-GPIO1_A0_D0-Pad1)*%
X152262000Y-74460000D03*
%TO.P,U1,2,GPIO2_A1_D1*%
%TO.N,Net-(J1-Pin_2)*%
X152262000Y-77000000D03*
%TO.P,U1,3,GPIO3_A2_D2*%
%TO.N,Net-(J1-Pin_3)*%
X152262000Y-79540000D03*
%TO.P,U1,4,GPIO4_A3_D3*%
%TO.N,unconnected-(U1-GPIO4_A3_D3-Pad4)*%
X152262000Y-82080000D03*
%TO.P,U1,5,GPIO4_A3_D3_SDA*%
%TO.N,unconnected-(U1-GPIO4_A3_D3_SDA-Pad5)*%
X152262000Y-84620000D03*
%TO.P,U1,6,GPIO6_A5_D5_SCL*%
%TO.N,unconnected-(U1-GPIO6_A5_D5_SCL-Pad6)*%
X152262000Y-87160000D03*
%TO.P,U1,7,GPIO43_TX_D6*%
%TO.N,unconnected-(U1-GPIO43_TX_D6-Pad7)*%
X152262000Y-89700000D03*
%TO.P,U1,8,GPIO44_D7_RX*%
%TO.N,unconnected-(U1-GPIO44_D7_RX-Pad8)*%
X135498000Y-89700000D03*
%TO.P,U1,9,GPIO7_A8_D8_SCK*%
%TO.N,unconnected-(U1-GPIO7_A8_D8_SCK-Pad9)*%
X135498000Y-87160000D03*
%TO.P,U1,10,GPIO8_A9_D9_CIPO*%
%TO.N,unconnected-(U1-GPIO8_A9_D9_CIPO-Pad10)*%
X135498000Y-84620000D03*
%TO.P,U1,11,GPIO9_A10_D10_COPI*%
%TO.N,unconnected-(U1-GPIO9_A10_D10_COPI-Pad11)*%
X135498000Y-82080000D03*
%TO.P,U1,12,3V3*%
%TO.N,unconnected-(U1-3V3-Pad12)*%
X135498000Y-79540000D03*
%TO.P,U1,13,GND*%
%TO.N,GND*%
X135498000Y-77000000D03*
%TO.P,U1,14,5V*%
%TO.N,Net-(J1-Pin_4)*%
X135498000Y-74460000D03*
D11*
%TO.P,U1,15,+BATT*%
%TO.N,Net-(J2-Pin_2)*%
X146420000Y-99860000D03*
%TO.P,U1,16,-BATT*%
%TO.N,GND*%
X141340000Y-99860000D03*
%TD*%
D12*
%TO.P,J2,1,Pin_1*%
%TO.N,GND*%
X162000000Y-104000000D03*
D13*
%TO.P,J2,2,Pin_2*%
%TO.N,Net-(J2-Pin_2)*%
X160000000Y-104000000D03*
%TD*%
D14*
%TO.P,J1,1,Pin_1*%
%TO.N,GND*%
X167000000Y-80960000D03*
D15*
%TO.P,J1,2,Pin_2*%
%TO.N,Net-(J1-Pin_2)*%
X167000000Y-83500000D03*
%TO.P,J1,3,Pin_3*%
%TO.N,Net-(J1-Pin_3)*%
X167000000Y-86040000D03*
%TO.P,J1,4,Pin_4*%
%TO.N,Net-(J1-Pin_4)*%
X167000000Y-88580000D03*
%TD*%
D16*
%TO.N,Net-(J1-Pin_2)*%
X158250000Y-77000000D02*
X151500000Y-77000000D01*
X164750000Y-83500000D02*
X158250000Y-77000000D01*
X167000000Y-83500000D02*
X164750000Y-83500000D01*
%TO.N,Net-(J1-Pin_4)*%
X130500000Y-74500000D02*
X136220000Y-74500000D01*
X130000000Y-75000000D02*
X130500000Y-74500000D01*
X166500000Y-95500000D02*
X132000000Y-95500000D01*
X167000000Y-88580000D02*
X167000000Y-95000000D01*
X132000000Y-95500000D02*
X130000000Y-93500000D01*
X130000000Y-93500000D02*
X130000000Y-75000000D01*
X136220000Y-74500000D02*
X136260000Y-74460000D01*
X167000000Y-95000000D02*
X166500000Y-95500000D01*
%TO.N,Net-(J1-Pin_3)*%
X155040000Y-79540000D02*
X161500000Y-86000000D01*
D17*
X167000000Y-86040000D02*
X166960000Y-86000000D01*
D16*
X151500000Y-79540000D02*
X155040000Y-79540000D01*
X161500000Y-86000000D02*
X166960000Y-86000000D01*
%TO.N,Net-(J2-Pin_2)*%
X146420000Y-99860000D02*
X150560000Y-104000000D01*
X150560000Y-104000000D02*
X160000000Y-104000000D01*
X146420000Y-99920000D02*
X146420000Y-99860000D01*
%TD*%
%TA.AperFunction,Conductor*%
%TO.N,GND*%
G36*
X175942539Y-67020185D02*
G01*
X175988294Y-67072989D01*
X175999500Y-67124500D01*
X175999500Y-114375500D01*
X175979815Y-114442539D01*
X175927011Y-114488294D01*
X175875500Y-114499500D01*
X123624500Y-114499500D01*
X123557461Y-114479815D01*
X123511706Y-114427011D01*
X123500500Y-114375500D01*
X123500500Y-110393713D01*
X126149500Y-110393713D01*
X126149500Y-110606286D01*
X126182753Y-110816239D01*
X126248444Y-111018414D01*
X126344951Y-111207820D01*
X126469890Y-111379786D01*
X126620213Y-111530109D01*
X126792179Y-111655048D01*
X126792181Y-111655049D01*
X126792184Y-111655051D01*
X126981588Y-111751557D01*
X127183757Y-111817246D01*
X127393713Y-111850500D01*
X127393714Y-111850500D01*
X127606286Y-111850500D01*
X127606287Y-111850500D01*
X127816243Y-111817246D01*
X128018412Y-111751557D01*
X128207816Y-111655051D01*
X128229789Y-111639086D01*
X128379786Y-111530109D01*
X128379788Y-111530106D01*
X128379792Y-111530104D01*
X128530104Y-111379792D01*
X128530106Y-111379788D01*
X128530109Y-111379786D01*
X128655048Y-111207820D01*
X128655047Y-111207820D01*
X128655051Y-111207816D01*
X128751557Y-111018412D01*
X128817246Y-110816243D01*
X128850500Y-110606287D01*
X128850500Y-110393713D01*
X170649500Y-110393713D01*
X170649500Y-110606286D01*
X170682753Y-110816239D01*
X170748444Y-111018414D01*
X170844951Y-111207820D01*
X170969890Y-111379786D01*
X171120213Y-111530109D01*
X171292179Y-111655048D01*
X171292181Y-111655049D01*
X171292184Y-111655051D01*
X171481588Y-111751557D01*
X171683757Y-111817246D01*
X171893713Y-111850500D01*
X171893714Y-111850500D01*
X172106286Y-111850500D01*
X172106287Y-111850500D01*
X172316243Y-111817246D01*
X172518412Y-111751557D01*
X172707816Y-111655051D01*
X172729789Y-111639086D01*
X172879786Y-111530109D01*
X172879788Y-111530106D01*
X172879792Y-111530104D01*
X173030104Y-111379792D01*
X173030106Y-111379788D01*
X173030109Y-111379786D01*
X173155048Y-111207820D01*
X173155047Y-111207820D01*
X173155051Y-111207816D01*
X173251557Y-111018412D01*
X173317246Y-110816243D01*
X173350500Y-110606287D01*
X173350500Y-110393713D01*
X173317246Y-110183757D01*
X173251557Y-109981588D01*
X173155051Y-109792184D01*
X173155049Y-109792181D01*
X173155048Y-109792179D01*
X173030109Y-109620213D01*
X172879786Y-109469890D01*
X172707820Y-109344951D01*
X172518414Y-109248444D01*
X172518413Y-109248443D01*
X172518412Y-109248443D01*
X172316243Y-109182754D01*
X172316241Y-109182753D01*
X172316240Y-109182753D01*
X172154957Y-109157208D01*
X172106287Y-109149500D01*
X171893713Y-109149500D01*
X171845042Y-109157208D01*
X171683760Y-109182753D01*
X171481585Y-109248444D01*
X171292179Y-109344951D01*
X171120213Y-109469890D01*
X170969890Y-109620213D01*
X170844951Y-109792179D01*
X170748444Y-109981585D01*
X170682753Y-110183760D01*
X170649500Y-110393713D01*
X128850500Y-110393713D01*
X128817246Y-110183757D01*
X128751557Y-109981588D01*
X128655051Y-109792184D01*
X128655049Y-109792181D01*
X128655048Y-109792179D01*
X128530109Y-109620213D01*
X128379786Y-109469890D01*
X128207820Y-109344951D01*
X128018414Y-109248444D01*
X128018413Y-109248443D01*
X128018412Y-109248443D01*
X127816243Y-109182754D01*
X127816241Y-109182753D01*
X127816240Y-109182753D01*
X127654957Y-109157208D01*
X127606287Y-109149500D01*
X127393713Y-109149500D01*
X127345042Y-109157208D01*
X127183760Y-109182753D01*
X126981585Y-109248444D01*
X126792179Y-109344951D01*
X126620213Y-109469890D01*
X126469890Y-109620213D01*
X126344951Y-109792179D01*
X126248444Y-109981585D01*
X126182753Y-110183760D01*
X126149500Y-110393713D01*
X123500500Y-110393713D01*
X123500500Y-99745686D01*
X139887500Y-99745686D01*
X139887500Y-99974313D01*
X139923265Y-100200124D01*
X139923265Y-100200125D01*
X139993917Y-100417568D01*
X140097711Y-100621276D01*
X140151347Y-100695098D01*
X140151347Y-100695099D01*
X140850504Y-99995941D01*
X140866619Y-100056081D01*
X140933498Y-100171920D01*
X141028080Y-100266502D01*
X141143919Y-100333381D01*
X141204057Y-100349494D01*
X140504899Y-101048651D01*
X140578725Y-101102288D01*
X140578731Y-101102292D01*
X140782431Y-101206082D01*
X140999875Y-101276734D01*
X141225687Y-101312500D01*
X141454313Y-101312500D01*
X141680124Y-101276734D01*
X141680125Y-101276734D01*
X141897568Y-101206082D01*
X142101276Y-101102288D01*
X142175098Y-101048651D01*
X141475942Y-100349495D01*
X141536081Y-100333381D01*
X141651920Y-100266502D01*
X141746502Y-100171920D01*
X141813381Y-100056081D01*
X141829494Y-99995942D01*
X142528651Y-100695099D01*
X142528651Y-100695098D01*
X142582288Y-100621276D01*
X142686082Y-100417568D01*
X142756734Y-100200125D01*
X142756734Y-100200124D01*
X142792500Y-99974313D01*
X142792500Y-99745686D01*
X142792494Y-99745646D01*
X144967000Y-99745646D01*
X144967000Y-99974353D01*
X145002778Y-100200246D01*
X145002778Y-100200249D01*
X145073450Y-100417755D01*
X145073452Y-100417758D01*
X145177283Y-100621538D01*
X145311714Y-100806566D01*
X145473434Y-100968286D01*
X145658462Y-101102717D01*
X145861327Y-101206082D01*
X145862244Y-101206549D01*
X146079751Y-101277221D01*
X146079752Y-101277221D01*
X146079755Y-101277222D01*
X146305646Y-101313000D01*
X146305647Y-101313000D01*
X146534353Y-101313000D01*
X146534354Y-101313000D01*
X146711318Y-101284971D01*
X146780609Y-101293925D01*
X146818395Y-101319763D01*
X148405287Y-102906654D01*
X149977049Y-104478416D01*
X150031334Y-104532701D01*
X150081585Y-104582952D01*
X150204498Y-104665080D01*
X150204511Y-104665087D01*
X150341082Y-104721656D01*
X150341087Y-104721658D01*
X150341091Y-104721658D01*
X150341092Y-104721659D01*
X150486079Y-104750500D01*
X150486082Y-104750500D01*
X158931173Y-104750500D01*
X158998212Y-104770185D01*
X159041656Y-104818204D01*
X159058479Y-104851220D01*
X159058769Y-104851790D01*
X159058770Y-104851792D01*
X159101100Y-104910053D01*
X159160586Y-104991928D01*
X159283072Y-105114414D01*
X159423212Y-105216232D01*
X159577555Y-105294873D01*
X159742299Y-105348402D01*
X159913389Y-105375500D01*
X159913390Y-105375500D01*
X160086610Y-105375500D01*
X160086611Y-105375500D01*
X160257701Y-105348402D01*
X160422445Y-105294873D01*
X160576788Y-105216232D01*
X160716928Y-105114414D01*
X160824836Y-105006505D01*
X160886155Y-104973023D01*
X160955847Y-104978007D01*
X161011781Y-105019878D01*
X161018053Y-105029093D01*
X161057682Y-105093343D01*
X161181654Y-105217315D01*
X161330875Y-105309356D01*
X161330880Y-105309358D01*
X161497302Y-105364505D01*
X161497309Y-105364506D01*
X161600019Y-105374999D01*
X161749999Y-105374999D01*
X161750000Y-105374998D01*
X161750000Y-104280330D01*
X161769745Y-104300075D01*
X161855255Y-104349444D01*
X161950630Y-104375000D01*
X162049370Y-104375000D01*
X162144745Y-104349444D01*
X162230255Y-104300075D01*
X162250000Y-104280330D01*
X162250000Y-105374999D01*
X162399972Y-105374999D01*
X162399986Y-105374998D01*
X162502697Y-105364505D01*
X162669119Y-105309358D01*
X162669124Y-105309356D01*
X162818345Y-105217315D01*
X162942315Y-105093345D01*
X163034356Y-104944124D01*
X163034358Y-104944119D01*
X163089505Y-104777697D01*
X163089506Y-104777690D01*
X163099999Y-104674986D01*
X163100000Y-104674973D01*
X163100000Y-104250000D01*
X162280330Y-104250000D01*
X162300075Y-104230255D01*
X162349444Y-104144745D01*
X162375000Y-104049370D01*
X162375000Y-103950630D01*
X162349444Y-103855255D01*
X162300075Y-103769745D01*
X162280330Y-103750000D01*
X163099999Y-103750000D01*
X163099999Y-103325028D01*
X163099998Y-103325013D01*
X163089505Y-103222302D01*
X163034358Y-103055880D01*
X163034356Y-103055875D01*
X162942315Y-102906654D01*
X162818345Y-102782684D01*
X162669124Y-102690643D01*
X162669119Y-102690641D01*
X162502697Y-102635494D01*
X162502690Y-102635493D01*
X162399986Y-102625000D01*
X162250000Y-102625000D01*
X162250000Y-103719670D01*
X162230255Y-103699925D01*
X162144745Y-103650556D01*
X162049370Y-103625000D01*
X161950630Y-103625000D01*
X161855255Y-103650556D01*
X161769745Y-103699925D01*
X161750000Y-103719670D01*
X161750000Y-102625000D01*
X161600027Y-102625000D01*
X161600012Y-102625001D01*
X161497302Y-102635494D01*
X161330880Y-102690641D01*
X161330875Y-102690643D01*
X161181654Y-102782684D01*
X161057684Y-102906654D01*
X161018053Y-102970907D01*
X160966105Y-103017631D01*
X160897142Y-103028853D01*
X160833060Y-103001010D01*
X160824833Y-102993491D01*
X160716930Y-102885588D01*
X160716928Y-102885586D01*
X160576788Y-102783768D01*
X160422445Y-102705127D01*
X160257701Y-102651598D01*
X160257699Y-102651597D01*
X160257698Y-102651597D01*
X160126271Y-102630781D01*
X160086611Y-102624500D01*
X159913389Y-102624500D01*
X159873728Y-102630781D01*
X159742302Y-102651597D01*
X159577552Y-102705128D01*
X159423211Y-102783768D01*
X159343256Y-102841859D01*
X159283072Y-102885586D01*
X159283070Y-102885588D01*
X159283069Y-102885588D01*
X159160588Y-103008069D01*
X159160588Y-103008070D01*
X159160586Y-103008072D01*
X159153641Y-103017631D01*
X159058770Y-103148207D01*
X159058769Y-103148209D01*
X159053230Y-103159079D01*
X159041656Y-103181795D01*
X158993685Y-103232590D01*
X158931173Y-103249500D01*
X150922229Y-103249500D01*
X150855190Y-103229815D01*
X150834548Y-103213181D01*
X147879763Y-100258395D01*
X147846278Y-100197072D01*
X147844971Y-100151319D01*
X147873000Y-99974354D01*
X147873000Y-99745646D01*
X147837222Y-99519755D01*
X147837221Y-99519751D01*
X147837221Y-99519750D01*
X147766549Y-99302244D01*
X147662851Y-99098725D01*
X147662717Y-99098462D01*
X147528286Y-98913434D01*
X147366566Y-98751714D01*
X147181538Y-98617283D01*
X146977755Y-98513450D01*
X146760248Y-98442778D01*
X146590826Y-98415944D01*
X146534354Y-98407000D01*
X146305646Y-98407000D01*
X146230349Y-98418926D01*
X146079753Y-98442778D01*
X146079750Y-98442778D01*
X145862244Y-98513450D01*
X145658461Y-98617283D01*
X145584051Y-98671346D01*
X145473434Y-98751714D01*
X145473432Y-98751716D01*
X145473431Y-98751716D01*
X145311716Y-98913431D01*
X145311716Y-98913432D01*
X145311714Y-98913434D01*
X145253980Y-98992896D01*
X145177283Y-99098461D01*
X145073450Y-99302244D01*
X145002778Y-99519750D01*
X145002778Y-99519753D01*
X144967000Y-99745646D01*
X142792494Y-99745646D01*
X142756734Y-99519875D01*
X142756734Y-99519874D01*
X142686082Y-99302431D01*
X142582292Y-99098731D01*
X142582288Y-99098725D01*
X142528651Y-99024900D01*
X142528651Y-99024899D01*
X141829494Y-99724056D01*
X141813381Y-99663919D01*
X141746502Y-99548080D01*
X141651920Y-99453498D01*
X141536081Y-99386619D01*
X141475940Y-99370504D01*
X142175099Y-98671347D01*
X142101276Y-98617711D01*
X141897568Y-98513917D01*
X141680124Y-98443265D01*
X141454313Y-98407500D01*
X141225687Y-98407500D01*
X140999875Y-98443265D01*
X140999874Y-98443265D01*
X140782431Y-98513917D01*
X140578719Y-98617713D01*
X140504900Y-98671346D01*
X140504899Y-98671347D01*
X141204057Y-99370504D01*
X141143919Y-99386619D01*
X141028080Y-99453498D01*
X140933498Y-99548080D01*
X140866619Y-99663919D01*
X140850504Y-99724057D01*
X140151347Y-99024899D01*
X140151346Y-99024900D01*
X140097713Y-99098719D01*
X139993917Y-99302431D01*
X139923265Y-99519874D01*
X139923265Y-99519875D01*
X139887500Y-99745686D01*
X123500500Y-99745686D01*
X123500500Y-93573920D01*
X129249499Y-93573920D01*
X129278340Y-93718907D01*
X129278343Y-93718917D01*
X129334914Y-93855492D01*
X129367812Y-93904727D01*
X129367813Y-93904730D01*
X129417046Y-93978414D01*
X129417052Y-93978421D01*
X131417049Y-95978416D01*
X131521583Y-96082950D01*
X131521585Y-96082952D01*
X131644498Y-96165080D01*
X131644511Y-96165087D01*
X131781082Y-96221656D01*
X131781087Y-96221658D01*
X131781091Y-96221658D01*
X131781092Y-96221659D01*
X131926079Y-96250500D01*
X131926082Y-96250500D01*
X166573920Y-96250500D01*
X166671462Y-96231096D01*
X166718913Y-96221658D01*
X166855495Y-96165084D01*
X166904729Y-96132186D01*
X166978416Y-96082952D01*
X167582952Y-95478416D01*
X167632186Y-95404729D01*
X167665084Y-95355495D01*
X167721658Y-95218913D01*
X167750500Y-95073918D01*
X167750500Y-89767220D01*
X167770185Y-89700181D01*
X167801614Y-89666902D01*
X167879792Y-89610104D01*
X168030104Y-89459792D01*
X168030106Y-89459788D01*
X168030109Y-89459786D01*
X168155048Y-89287820D01*
X168155047Y-89287820D01*
X168155051Y-89287816D01*
X168251557Y-89098412D01*
X168317246Y-88896243D01*
X168350500Y-88686287D01*
X168350500Y-88473713D01*
X168317246Y-88263757D01*
X168251557Y-88061588D01*
X168155051Y-87872184D01*
X168155049Y-87872181D01*
X168155048Y-87872179D01*
X168030109Y-87700213D01*
X167879786Y-87549890D01*
X167707820Y-87424951D01*
X167707115Y-87424591D01*
X167699054Y-87420485D01*
X167648259Y-87372512D01*
X167631463Y-87304692D01*
X167653999Y-87238556D01*
X167699054Y-87199515D01*
X167707816Y-87195051D01*
X167729789Y-87179086D01*
X167879786Y-87070109D01*
X167879788Y-87070106D01*
X167879792Y-87070104D01*
X168030104Y-86919792D01*
X168030106Y-86919788D01*
X168030109Y-86919786D01*
X168155048Y-86747820D01*
X168155047Y-86747820D01*
X168155051Y-86747816D01*
X168251557Y-86558412D01*
X168317246Y-86356243D01*
X168350500Y-86146287D01*
X168350500Y-85933713D01*
X168317246Y-85723757D01*
X168251557Y-85521588D01*
X168155051Y-85332184D01*
X168155049Y-85332181D01*
X168155048Y-85332179D01*
X168030109Y-85160213D01*
X167879786Y-85009890D01*
X167707820Y-84884951D01*
X167707115Y-84884591D01*
X167699054Y-84880485D01*
X167648259Y-84832512D01*
X167631463Y-84764692D01*
X167653999Y-84698556D01*
X167699054Y-84659515D01*
X167707816Y-84655051D01*
X167729789Y-84639086D01*
X167879786Y-84530109D01*
X167879788Y-84530106D01*
X167879792Y-84530104D01*
X168030104Y-84379792D01*
X168030106Y-84379788D01*
X168030109Y-84379786D01*
X168155048Y-84207820D01*
X168155047Y-84207820D01*
X168155051Y-84207816D01*
X168251557Y-84018412D01*
X168317246Y-83816243D01*
X168350500Y-83606287D01*
X168350500Y-83393713D01*
X168317246Y-83183757D01*
X168251557Y-82981588D01*
X168155051Y-82792184D01*
X168155049Y-82792181D01*
X168155048Y-82792179D01*
X168030109Y-82620213D01*
X167916181Y-82506285D01*
X167882696Y-82444962D01*
X167887680Y-82375270D01*
X167929552Y-82319337D01*
X167960529Y-82302422D01*
X168092086Y-82253354D01*
X168092093Y-82253350D01*
X168207187Y-82167190D01*
X168207190Y-82167187D01*
X168293350Y-82052093D01*
X168293354Y-82052086D01*
X168343596Y-81917379D01*
X168343598Y-81917372D01*
X168349999Y-81857844D01*
X168350000Y-81857827D01*
X168350000Y-81210000D01*
X167433012Y-81210000D01*
X167465925Y-81152993D01*
X167500000Y-81025826D01*
X167500000Y-80894174D01*
X167465925Y-80767007D01*
X167433012Y-80710000D01*
X168350000Y-80710000D01*
X168350000Y-80062172D01*
X168349999Y-80062155D01*
X168343598Y-80002627D01*
X168343596Y-80002620D01*
X168293354Y-79867913D01*
X168293350Y-79867906D01*
X168207190Y-79752812D01*
X168207187Y-79752809D01*
X168092093Y-79666649D01*
X168092086Y-79666645D01*
X167957379Y-79616403D01*
X167957372Y-79616401D01*
X167897844Y-79610000D01*
X167250000Y-79610000D01*
X167250000Y-80526988D01*
X167192993Y-80494075D01*
X167065826Y-80460000D01*
X166934174Y-80460000D01*
X166807007Y-80494075D01*
X166750000Y-80526988D01*
X166750000Y-79610000D01*
X166102155Y-79610000D01*
X166042627Y-79616401D01*
X166042620Y-79616403D01*
X165907913Y-79666645D01*
X165907906Y-79666649D01*
X165792812Y-79752809D01*
X165792809Y-79752812D01*
X165706649Y-79867906D01*
X165706645Y-79867913D01*
X165656403Y-80002620D01*
X165656401Y-80002627D01*
X165650000Y-80062155D01*
X165650000Y-80710000D01*
X166566988Y-80710000D01*
X166534075Y-80767007D01*
X166500000Y-80894174D01*
X166500000Y-81025826D01*
X166534075Y-81152993D01*
X166566988Y-81210000D01*
X165650000Y-81210000D01*
X165650000Y-81857844D01*
X165656401Y-81917372D01*
X165656403Y-81917379D01*
X165706645Y-82052086D01*
X165706649Y-82052093D01*
X165792809Y-82167187D01*
X165792812Y-82167190D01*
X165907906Y-82253350D01*
X165907913Y-82253354D01*
X166039470Y-82302422D01*
X166095404Y-82344293D01*
X166119821Y-82409758D01*
X166104969Y-82478031D01*
X166083819Y-82506285D01*
X165969892Y-82620212D01*
X165913097Y-82698385D01*
X165857767Y-82741051D01*
X165812779Y-82749500D01*
X165112229Y-82749500D01*
X165045190Y-82729815D01*
X165024548Y-82713181D01*
X162457900Y-80146532D01*
X158728421Y-76417052D01*
X158728420Y-76417051D01*
X158638724Y-76357119D01*
X158605495Y-76334916D01*
X158605488Y-76334912D01*
X158468917Y-76278343D01*
X158468907Y-76278340D01*
X158323920Y-76249500D01*
X158323918Y-76249500D01*
X154386428Y-76249500D01*
X154319389Y-76229815D01*
X154286111Y-76198387D01*
X154210852Y-76094801D01*
X154056199Y-75940148D01*
X153905028Y-75830316D01*
X153862364Y-75774989D01*
X153856385Y-75705376D01*
X153888990Y-75643580D01*
X153905023Y-75629686D01*
X154056199Y-75519852D01*
X154210852Y-75365199D01*
X154210854Y-75365195D01*
X154210857Y-75365193D01*
X154279883Y-75270185D01*
X154339407Y-75188257D01*
X154438701Y-74993383D01*
X154506286Y-74785375D01*
X154536396Y-74595269D01*
X154540500Y-74569361D01*
X154540500Y-74350638D01*
X154520595Y-74224971D01*
X154506286Y-74134625D01*
X154438701Y-73926617D01*
X154438701Y-73926616D01*
X154391979Y-73834921D01*
X154339407Y-73731743D01*
X154315171Y-73698385D01*
X154210857Y-73554806D01*
X154056193Y-73400142D01*
X153879260Y-73271595D01*
X153879259Y-73271594D01*
X153879257Y-73271593D01*
X153816825Y-73239782D01*
X153684383Y-73172298D01*
X153684380Y-73172297D01*
X153476376Y-73104714D01*
X153260361Y-73070500D01*
X153260356Y-73070500D01*
X151263644Y-73070500D01*
X151263639Y-73070500D01*
X151047623Y-73104714D01*
X150839619Y-73172297D01*
X150839616Y-73172298D01*
X150644739Y-73271595D01*
X150467806Y-73400142D01*
X150313142Y-73554806D01*
X150184595Y-73731739D01*
X150085298Y-73926616D01*
X150085297Y-73926619D01*
X150017714Y-74134623D01*
X149983500Y-74350638D01*
X149983500Y-74569361D01*
X150017714Y-74785376D01*
X150085297Y-74993380D01*
X150085298Y-74993383D01*
X150184595Y-75188260D01*
X150313142Y-75365193D01*
X150467806Y-75519857D01*
X150618969Y-75629682D01*
X150661635Y-75685011D01*
X150667614Y-75754625D01*
X150635009Y-75816420D01*
X150618969Y-75830318D01*
X150467806Y-75940142D01*
X150313142Y-76094806D01*
X150184595Y-76271739D01*
X150085298Y-76466616D01*
X150085297Y-76466619D01*
X150017714Y-76674623D01*
X149983500Y-76890638D01*
X149983500Y-77109361D01*
X150017714Y-77325376D01*
X150085297Y-77533380D01*
X150085298Y-77533383D01*
X150152782Y-77665825D01*
X150184461Y-77727998D01*
X150184595Y-77728260D01*
X150313142Y-77905193D01*
X150467806Y-78059857D01*
X150618969Y-78169682D01*
X150661635Y-78225011D01*
X150667614Y-78294625D01*
X150635009Y-78356420D01*
X150618969Y-78370318D01*
X150467806Y-78480142D01*
X150313142Y-78634806D01*
X150184595Y-78811739D01*
X150085298Y-79006616D01*
X150085297Y-79006619D01*
X150017714Y-79214623D01*
X149983500Y-79430638D01*
X149983500Y-79649361D01*
X150017714Y-79865376D01*
X150085297Y-80073380D01*
X150085298Y-80073383D01*
X150184595Y-80268260D01*
X150313142Y-80445193D01*
X150467806Y-80599857D01*
X150618969Y-80709682D01*
X150661635Y-80765011D01*
X150667614Y-80834625D01*
X150635009Y-80896420D01*
X150618969Y-80910318D01*
X150467806Y-81020142D01*
X150313142Y-81174806D01*
X150184595Y-81351739D01*
X150085298Y-81546616D01*
X150085297Y-81546619D01*
X150017714Y-81754623D01*
X149983500Y-81970638D01*
X149983500Y-82189361D01*
X150017714Y-82405376D01*
X150085297Y-82613380D01*
X150085298Y-82613383D01*
X150150350Y-82741051D01*
X150176403Y-82792184D01*
X150184595Y-82808260D01*
X150313142Y-82985193D01*
X150467806Y-83139857D01*
X150618969Y-83249682D01*
X150661635Y-83305011D01*
X150667614Y-83374625D01*
X150635009Y-83436420D01*
X150618969Y-83450318D01*
X150467806Y-83560142D01*
X150313142Y-83714806D01*
X150184595Y-83891739D01*
X150085298Y-84086616D01*
X150085297Y-84086619D01*
X150017714Y-84294623D01*
X149983500Y-84510638D01*
X149983500Y-84729361D01*
X150017714Y-84945376D01*
X150085297Y-85153380D01*
X150085298Y-85153383D01*
X150124243Y-85229815D01*
X150176403Y-85332184D01*
X150184595Y-85348260D01*
X150313142Y-85525193D01*
X150467806Y-85679857D01*
X150618969Y-85789682D01*
X150661635Y-85845011D01*
X150667614Y-85914625D01*
X150635009Y-85976420D01*
X150618969Y-85990318D01*
X150467806Y-86100142D01*
X150313142Y-86254806D01*
X150184595Y-86431739D01*
X150085298Y-86626616D01*
X150085297Y-86626619D01*
X150017714Y-86834623D01*
X149983500Y-87050638D01*
X149983500Y-87269361D01*
X150017714Y-87485376D01*
X150085297Y-87693380D01*
X150085298Y-87693383D01*
X150152782Y-87825825D01*
X150176403Y-87872184D01*
X150184595Y-87888260D01*
X150313142Y-88065193D01*
X150467806Y-88219857D01*
X150618969Y-88329682D01*
X150661635Y-88385011D01*
X150667614Y-88454625D01*
X150635009Y-88516420D01*
X150618969Y-88530318D01*
X150467806Y-88640142D01*
X150313142Y-88794806D01*
X150184595Y-88971739D01*
X150085298Y-89166616D01*
X150085297Y-89166619D01*
X150017714Y-89374623D01*
X149983500Y-89590638D01*
X149983500Y-89809361D01*
X150017714Y-90025376D01*
X150085297Y-90233380D01*
X150085298Y-90233383D01*
X150184595Y-90428260D01*
X150313142Y-90605193D01*
X150467806Y-90759857D01*
X150633374Y-90880147D01*
X150644743Y-90888407D01*
X150772132Y-90953315D01*
X150839616Y-90987701D01*
X150839619Y-90987702D01*
X150943621Y-91021493D01*
X151047625Y-91055286D01*
X151147672Y-91071132D01*
X151263639Y-91089500D01*
X151263644Y-91089500D01*
X153260361Y-91089500D01*
X153365082Y-91072912D01*
X153476375Y-91055286D01*
X153684383Y-90987701D01*
X153879257Y-90888407D01*
X153978601Y-90816229D01*
X154056193Y-90759857D01*
X154056195Y-90759854D01*
X154056199Y-90759852D01*
X154210852Y-90605199D01*
X154210854Y-90605195D01*
X154210857Y-90605193D01*
X154267229Y-90527601D01*
X154339407Y-90428257D01*
X154438701Y-90233383D01*
X154506286Y-90025375D01*
X154523912Y-89914082D01*
X154540500Y-89809361D01*
X154540500Y-89590638D01*
X154519774Y-89459786D01*
X154506286Y-89374625D01*
X154438701Y-89166617D01*
X154438701Y-89166616D01*
X154403949Y-89098412D01*
X154339407Y-88971743D01*
X154331147Y-88960374D01*
X154210857Y-88794806D01*
X154056199Y-88640148D01*
X154056191Y-88640142D01*
X153905028Y-88530316D01*
X153862364Y-88474989D01*
X153856385Y-88405376D01*
X153888990Y-88343580D01*
X153905023Y-88329686D01*
X154056199Y-88219852D01*
X154210852Y-88065199D01*
X154210854Y-88065195D01*
X154210857Y-88065193D01*
X154267229Y-87987601D01*
X154339407Y-87888257D01*
X154438701Y-87693383D01*
X154506286Y-87485375D01*
X154531142Y-87328443D01*
X154540500Y-87269361D01*
X154540500Y-87050638D01*
X154519774Y-86919786D01*
X154506286Y-86834625D01*
X154438701Y-86626617D01*
X154438701Y-86626616D01*
X154403949Y-86558412D01*
X154339407Y-86431743D01*
X154331147Y-86420374D01*
X154210857Y-86254806D01*
X154056199Y-86100148D01*
X154056191Y-86100142D01*
X153905028Y-85990316D01*
X153862364Y-85934989D01*
X153856385Y-85865376D01*
X153888990Y-85803580D01*
X153905023Y-85789686D01*
X154056199Y-85679852D01*
X154210852Y-85525199D01*
X154210854Y-85525195D01*
X154210857Y-85525193D01*
X154267229Y-85447601D01*
X154339407Y-85348257D01*
X154438701Y-85153383D01*
X154506286Y-84945375D01*
X154531142Y-84788443D01*
X154540500Y-84729361D01*
X154540500Y-84510638D01*
X154519774Y-84379786D01*
X154506286Y-84294625D01*
X154438701Y-84086617D01*
X154438701Y-84086616D01*
X154383569Y-83978416D01*
X154339407Y-83891743D01*
X154331147Y-83880374D01*
X154210857Y-83714806D01*
X154056199Y-83560148D01*
X154056191Y-83560142D01*
X153905028Y-83450316D01*
X153862364Y-83394989D01*
X153856385Y-83325376D01*
X153888990Y-83263580D01*
X153905023Y-83249686D01*
X154056199Y-83139852D01*
X154210852Y-82985199D01*
X154210854Y-82985195D01*
X154210857Y-82985193D01*
X154267229Y-82907601D01*
X154339407Y-82808257D01*
X154438701Y-82613383D01*
X154506286Y-82405375D01*
X154530364Y-82253354D01*
X154540500Y-82189361D01*
X154540500Y-81970638D01*
X154520595Y-81844971D01*
X154506286Y-81754625D01*
X154438701Y-81546617D01*
X154438701Y-81546616D01*
X154394567Y-81460000D01*
X154339407Y-81351743D01*
X154331147Y-81340374D01*
X154210857Y-81174806D01*
X154056199Y-81020148D01*
X154056191Y-81020142D01*
X153905028Y-80910316D01*
X153862364Y-80854989D01*
X153856385Y-80785376D01*
X153888990Y-80723580D01*
X153905023Y-80709686D01*
X154056199Y-80599852D01*
X154210852Y-80445199D01*
X154286111Y-80341613D01*
X154341439Y-80298949D01*
X154386428Y-80290500D01*
X154677770Y-80290500D01*
X154744809Y-80310185D01*
X154765451Y-80326819D01*
X157998775Y-83560142D01*
X161021585Y-86582952D01*
X161062373Y-86610205D01*
X161144505Y-86665084D01*
X161175161Y-86677782D01*
X161281088Y-86721659D01*
X161397241Y-86744763D01*
X161416468Y-86748587D01*
X161426081Y-86750500D01*
X161426082Y-86750500D01*
X161426083Y-86750500D01*
X161573918Y-86750500D01*
X165783718Y-86750500D01*
X165850757Y-86770185D01*
X165884037Y-86801616D01*
X165969892Y-86919788D01*
X166120213Y-87070109D01*
X166292182Y-87195050D01*
X166300946Y-87199516D01*
X166351742Y-87247491D01*
X166368536Y-87315312D01*
X166345998Y-87381447D01*
X166300946Y-87420484D01*
X166292182Y-87424949D01*
X166120213Y-87549890D01*
X165969890Y-87700213D01*
X165844951Y-87872179D01*
X165748444Y-88061585D01*
X165682753Y-88263760D01*
X165652523Y-88454625D01*
X165649500Y-88473713D01*
X165649500Y-88686287D01*
X165682754Y-88896243D01*
X165707284Y-88971739D01*
X165748444Y-89098414D01*
X165844951Y-89287820D01*
X165969890Y-89459786D01*
X165969896Y-89459792D01*
X166120208Y-89610104D01*
X166198384Y-89666902D01*
X166241051Y-89722231D01*
X166249500Y-89767220D01*
X166249500Y-94625500D01*
X166229815Y-94692539D01*
X166177011Y-94738294D01*
X166125500Y-94749500D01*
X132362229Y-94749500D01*
X132295190Y-94729815D01*
X132274548Y-94713181D01*
X130786819Y-93225451D01*
X130753334Y-93164128D01*
X130750500Y-93137770D01*
X130750500Y-75374500D01*
X130770185Y-75307461D01*
X130822989Y-75261706D01*
X130874500Y-75250500D01*
X133402633Y-75250500D01*
X133469672Y-75270185D01*
X133502951Y-75301615D01*
X133549142Y-75365193D01*
X133703802Y-75519853D01*
X133703807Y-75519857D01*
X133855394Y-75629991D01*
X133898060Y-75685320D01*
X133904039Y-75754934D01*
X133871434Y-75816729D01*
X133855394Y-75830627D01*
X133704133Y-75940524D01*
X133704128Y-75940528D01*
X133549528Y-76095128D01*
X133549524Y-76095133D01*
X133421023Y-76272001D01*
X133321762Y-76466808D01*
X133321761Y-76466811D01*
X133254201Y-76674741D01*
X133242282Y-76750000D01*
X135817749Y-76750000D01*
X135786619Y-76803919D01*
X135752000Y-76933120D01*
X135752000Y-77066880D01*
X135786619Y-77196081D01*
X135817749Y-77250000D01*
X133242282Y-77250000D01*
X133254201Y-77325258D01*
X133321761Y-77533188D01*
X133321762Y-77533191D01*
X133421023Y-77727998D01*
X133549524Y-77904866D01*
X133549528Y-77904871D01*
X133704128Y-78059471D01*
X133704133Y-78059475D01*
X133855394Y-78169372D01*
X133898060Y-78224701D01*
X133904039Y-78294315D01*
X133871434Y-78356110D01*
X133855394Y-78370008D01*
X133703807Y-78480142D01*
X133703802Y-78480146D01*
X133549142Y-78634806D01*
X133420595Y-78811739D01*
X133321298Y-79006616D01*
X133321297Y-79006619D01*
X133253714Y-79214623D01*
X133219500Y-79430638D01*
X133219500Y-79649361D01*
X133253714Y-79865376D01*
X133321297Y-80073380D01*
X133321298Y-80073383D01*
X133420595Y-80268260D01*
X133549142Y-80445193D01*
X133703806Y-80599857D01*
X133854969Y-80709682D01*
X133897635Y-80765011D01*
X133903614Y-80834625D01*
X133871009Y-80896420D01*
X133854969Y-80910318D01*
X133703806Y-81020142D01*
X133549142Y-81174806D01*
X133420595Y-81351739D01*
X133321298Y-81546616D01*
X133321297Y-81546619D01*
X133253714Y-81754623D01*
X133219500Y-81970638D01*
X133219500Y-82189361D01*
X133253714Y-82405376D01*
X133321297Y-82613380D01*
X133321298Y-82613383D01*
X133386350Y-82741051D01*
X133412403Y-82792184D01*
X133420595Y-82808260D01*
X133549142Y-82985193D01*
X133703806Y-83139857D01*
X133854969Y-83249682D01*
X133897635Y-83305011D01*
X133903614Y-83374625D01*
X133871009Y-83436420D01*
X133854969Y-83450318D01*
X133703806Y-83560142D01*
X133549142Y-83714806D01*
X133420595Y-83891739D01*
X133321298Y-84086616D01*
X133321297Y-84086619D01*
X133253714Y-84294623D01*
X133219500Y-84510638D01*
X133219500Y-84729361D01*
X133253714Y-84945376D01*
X133321297Y-85153380D01*
X133321298Y-85153383D01*
X133360243Y-85229815D01*
X133412403Y-85332184D01*
X133420595Y-85348260D01*
X133549142Y-85525193D01*
X133703806Y-85679857D01*
X133854969Y-85789682D01*
X133897635Y-85845011D01*
X133903614Y-85914625D01*
X133871009Y-85976420D01*
X133854969Y-85990318D01*
X133703806Y-86100142D01*
X133549142Y-86254806D01*
X133420595Y-86431739D01*
X133321298Y-86626616D01*
X133321297Y-86626619D01*
X133253714Y-86834623D01*
X133219500Y-87050638D01*
X133219500Y-87269361D01*
X133253714Y-87485376D01*
X133321297Y-87693380D01*
X133321298Y-87693383D01*
X133388782Y-87825825D01*
X133412403Y-87872184D01*
X133420595Y-87888260D01*
X133549142Y-88065193D01*
X133703806Y-88219857D01*
X133854969Y-88329682D01*
X133897635Y-88385011D01*
X133903614Y-88454625D01*
X133871009Y-88516420D01*
X133854969Y-88530318D01*
X133703806Y-88640142D01*
X133549142Y-88794806D01*
X133420595Y-88971739D01*
X133321298Y-89166616D01*
X133321297Y-89166619D01*
X133253714Y-89374623D01*
X133219500Y-89590638D01*
X133219500Y-89809361D01*
X133253714Y-90025376D01*
X133321297Y-90233380D01*
X133321298Y-90233383D01*
X133420595Y-90428260D01*
X133549142Y-90605193D01*
X133703806Y-90759857D01*
X133869374Y-90880147D01*
X133880743Y-90888407D01*
X134008132Y-90953315D01*
X134075616Y-90987701D01*
X134075619Y-90987702D01*
X134179621Y-91021493D01*
X134283625Y-91055286D01*
X134383672Y-91071132D01*
X134499639Y-91089500D01*
X134499644Y-91089500D01*
X136496361Y-91089500D01*
X136601082Y-91072912D01*
X136712375Y-91055286D01*
X136920383Y-90987701D01*
X137115257Y-90888407D01*
X137214601Y-90816229D01*
X137292193Y-90759857D01*
X137292195Y-90759854D01*
X137292199Y-90759852D01*
X137446852Y-90605199D01*
X137446854Y-90605195D01*
X137446857Y-90605193D01*
X137503229Y-90527601D01*
X137575407Y-90428257D01*
X137674701Y-90233383D01*
X137742286Y-90025375D01*
X137759912Y-89914082D01*
X137776500Y-89809361D01*
X137776500Y-89590638D01*
X137755774Y-89459786D01*
X137742286Y-89374625D01*
X137674701Y-89166617D01*
X137674701Y-89166616D01*
X137639949Y-89098412D01*
X137575407Y-88971743D01*
X137567147Y-88960374D01*
X137446857Y-88794806D01*
X137292199Y-88640148D01*
X137292191Y-88640142D01*
X137141028Y-88530316D01*
X137098364Y-88474989D01*
X137092385Y-88405376D01*
X137124990Y-88343580D01*
X137141023Y-88329686D01*
X137292199Y-88219852D01*
X137446852Y-88065199D01*
X137446854Y-88065195D01*
X137446857Y-88065193D01*
X137503229Y-87987601D01*
X137575407Y-87888257D01*
X137674701Y-87693383D01*
X137742286Y-87485375D01*
X137767142Y-87328443D01*
X137776500Y-87269361D01*
X137776500Y-87050638D01*
X137755774Y-86919786D01*
X137742286Y-86834625D01*
X137674701Y-86626617D01*
X137674701Y-86626616D01*
X137639949Y-86558412D01*
X137575407Y-86431743D01*
X137567147Y-86420374D01*
X137446857Y-86254806D01*
X137292199Y-86100148D01*
X137292191Y-86100142D01*
X137141028Y-85990316D01*
X137098364Y-85934989D01*
X137092385Y-85865376D01*
X137124990Y-85803580D01*
X137141023Y-85789686D01*
X137292199Y-85679852D01*
X137446852Y-85525199D01*
X137446854Y-85525195D01*
X137446857Y-85525193D01*
X137503229Y-85447601D01*
X137575407Y-85348257D01*
X137674701Y-85153383D01*
X137742286Y-84945375D01*
X137767142Y-84788443D01*
X137776500Y-84729361D01*
X137776500Y-84510638D01*
X137755774Y-84379786D01*
X137742286Y-84294625D01*
X137674701Y-84086617D01*
X137674701Y-84086616D01*
X137619569Y-83978416D01*
X137575407Y-83891743D01*
X137567147Y-83880374D01*
X137446857Y-83714806D01*
X137292199Y-83560148D01*
X137292191Y-83560142D01*
X137141028Y-83450316D01*
X137098364Y-83394989D01*
X137092385Y-83325376D01*
X137124990Y-83263580D01*
X137141023Y-83249686D01*
X137292199Y-83139852D01*
X137446852Y-82985199D01*
X137446854Y-82985195D01*
X137446857Y-82985193D01*
X137503229Y-82907601D01*
X137575407Y-82808257D01*
X137674701Y-82613383D01*
X137742286Y-82405375D01*
X137766364Y-82253354D01*
X137776500Y-82189361D01*
X137776500Y-81970638D01*
X137756595Y-81844971D01*
X137742286Y-81754625D01*
X137674701Y-81546617D01*
X137674701Y-81546616D01*
X137630567Y-81460000D01*
X137575407Y-81351743D01*
X137567147Y-81340374D01*
X137446857Y-81174806D01*
X137292199Y-81020148D01*
X137292191Y-81020142D01*
X137141028Y-80910316D01*
X137098364Y-80854989D01*
X137092385Y-80785376D01*
X137124990Y-80723580D01*
X137141023Y-80709686D01*
X137292199Y-80599852D01*
X137446852Y-80445199D01*
X137446854Y-80445195D01*
X137446857Y-80445193D01*
X137503229Y-80367601D01*
X137575407Y-80268257D01*
X137674701Y-80073383D01*
X137742286Y-79865375D01*
X137760115Y-79752809D01*
X137776500Y-79649361D01*
X137776500Y-79430638D01*
X137756595Y-79304971D01*
X137742286Y-79214625D01*
X137674701Y-79006617D01*
X137674701Y-79006616D01*
X137640315Y-78939132D01*
X137575407Y-78811743D01*
X137522110Y-78738385D01*
X137446857Y-78634806D01*
X137292197Y-78480146D01*
X137292192Y-78480142D01*
X137140605Y-78370008D01*
X137097939Y-78314678D01*
X137091960Y-78245065D01*
X137124565Y-78183270D01*
X137140605Y-78169371D01*
X137291873Y-78059469D01*
X137446471Y-77904871D01*
X137446475Y-77904866D01*
X137574976Y-77727998D01*
X137674237Y-77533191D01*
X137674238Y-77533188D01*
X137741798Y-77325258D01*
X137753718Y-77250000D01*
X136702251Y-77250000D01*
X136733381Y-77196081D01*
X136768000Y-77066880D01*
X136768000Y-76933120D01*
X136733381Y-76803919D01*
X136702251Y-76750000D01*
X137753718Y-76750000D01*
X137741798Y-76674741D01*
X137674238Y-76466811D01*
X137674237Y-76466808D01*
X137574976Y-76272001D01*
X137446475Y-76095133D01*
X137446471Y-76095128D01*
X137291871Y-75940528D01*
X137291866Y-75940524D01*
X137140605Y-75830627D01*
X137097939Y-75775297D01*
X137091960Y-75705684D01*
X137124565Y-75643889D01*
X137140599Y-75629994D01*
X137292199Y-75519852D01*
X137446852Y-75365199D01*
X137446854Y-75365195D01*
X137446857Y-75365193D01*
X137515883Y-75270185D01*
X137575407Y-75188257D01*
X137674701Y-74993383D01*
X137742286Y-74785375D01*
X137772396Y-74595269D01*
X137776500Y-74569361D01*
X137776500Y-74350638D01*
X137756595Y-74224971D01*
X137742286Y-74134625D01*
X137674701Y-73926617D01*
X137674701Y-73926616D01*
X137627979Y-73834921D01*
X137575407Y-73731743D01*
X137551171Y-73698385D01*
X137446857Y-73554806D01*
X137292193Y-73400142D01*
X137115260Y-73271595D01*
X137115259Y-73271594D01*
X137115257Y-73271593D01*
X137052825Y-73239782D01*
X136920383Y-73172298D01*
X136920380Y-73172297D01*
X136712376Y-73104714D01*
X136496361Y-73070500D01*
X136496356Y-73070500D01*
X134499644Y-73070500D01*
X134499639Y-73070500D01*
X134283623Y-73104714D01*
X134075619Y-73172297D01*
X134075616Y-73172298D01*
X133880739Y-73271595D01*
X133703806Y-73400142D01*
X133549146Y-73554802D01*
X133549142Y-73554807D01*
X133444828Y-73698385D01*
X133389499Y-73741051D01*
X133344510Y-73749500D01*
X130426080Y-73749500D01*
X130281092Y-73778340D01*
X130281086Y-73778342D01*
X130144508Y-73834914D01*
X130144496Y-73834921D01*
X130095269Y-73867813D01*
X130021588Y-73917044D01*
X130021580Y-73917050D01*
X129417050Y-74521580D01*
X129417044Y-74521588D01*
X129367812Y-74595268D01*
X129367813Y-74595269D01*
X129334921Y-74644496D01*
X129334914Y-74644508D01*
X129278342Y-74781086D01*
X129278340Y-74781092D01*
X129249500Y-74926079D01*
X129249500Y-74926082D01*
X129249500Y-93573918D01*
X129249500Y-93573920D01*
X129249499Y-93573920D01*
X123500500Y-93573920D01*
X123500500Y-70893713D01*
X126149500Y-70893713D01*
X126149500Y-71106286D01*
X126182753Y-71316239D01*
X126248444Y-71518414D01*
X126344951Y-71707820D01*
X126469890Y-71879786D01*
X126620213Y-72030109D01*
X126792179Y-72155048D01*
X126792181Y-72155049D01*
X126792184Y-72155051D01*
X126981588Y-72251557D01*
X127183757Y-72317246D01*
X127393713Y-72350500D01*
X127393714Y-72350500D01*
X127606286Y-72350500D01*
X127606287Y-72350500D01*
X127816243Y-72317246D01*
X128018412Y-72251557D01*
X128207816Y-72155051D01*
X128229789Y-72139086D01*
X128379786Y-72030109D01*
X128379788Y-72030106D01*
X128379792Y-72030104D01*
X128530104Y-71879792D01*
X128530106Y-71879788D01*
X128530109Y-71879786D01*
X128655048Y-71707820D01*
X128655047Y-71707820D01*
X128655051Y-71707816D01*
X128751557Y-71518412D01*
X128817246Y-71316243D01*
X128850500Y-71106287D01*
X128850500Y-70893713D01*
X170649500Y-70893713D01*
X170649500Y-71106286D01*
X170682753Y-71316239D01*
X170748444Y-71518414D01*
X170844951Y-71707820D01*
X170969890Y-71879786D01*
X171120213Y-72030109D01*
X171292179Y-72155048D01*
X171292181Y-72155049D01*
X171292184Y-72155051D01*
X171481588Y-72251557D01*
X171683757Y-72317246D01*
X171893713Y-72350500D01*
X171893714Y-72350500D01*
X172106286Y-72350500D01*
X172106287Y-72350500D01*
X172316243Y-72317246D01*
X172518412Y-72251557D01*
X172707816Y-72155051D01*
X172729789Y-72139086D01*
X172879786Y-72030109D01*
X172879788Y-72030106D01*
X172879792Y-72030104D01*
X173030104Y-71879792D01*
X173030106Y-71879788D01*
X173030109Y-71879786D01*
X173155048Y-71707820D01*
X173155047Y-71707820D01*
X173155051Y-71707816D01*
X173251557Y-71518412D01*
X173317246Y-71316243D01*
X173350500Y-71106287D01*
X173350500Y-70893713D01*
X173317246Y-70683757D01*
X173251557Y-70481588D01*
X173155051Y-70292184D01*
X173155049Y-70292181D01*
X173155048Y-70292179D01*
X173030109Y-70120213D01*
X172879786Y-69969890D01*
X172707820Y-69844951D01*
X172518414Y-69748444D01*
X172518413Y-69748443D01*
X172518412Y-69748443D01*
X172316243Y-69682754D01*
X172316241Y-69682753D01*
X172316240Y-69682753D01*
X172154957Y-69657208D01*
X172106287Y-69649500D01*
X171893713Y-69649500D01*
X171845042Y-69657208D01*
X171683760Y-69682753D01*
X171481585Y-69748444D01*
X171292179Y-69844951D01*
X171120213Y-69969890D01*
X170969890Y-70120213D01*
X170844951Y-70292179D01*
X170748444Y-70481585D01*
X170682753Y-70683760D01*
X170649500Y-70893713D01*
X128850500Y-70893713D01*
X128817246Y-70683757D01*
X128751557Y-70481588D01*
X128655051Y-70292184D01*
X128655049Y-70292181D01*
X128655048Y-70292179D01*
X128530109Y-70120213D01*
X128379786Y-69969890D01*
X128207820Y-69844951D01*
X128018414Y-69748444D01*
X128018413Y-69748443D01*
X128018412Y-69748443D01*
X127816243Y-69682754D01*
X127816241Y-69682753D01*
X127816240Y-69682753D01*
X127654957Y-69657208D01*
X127606287Y-69649500D01*
X127393713Y-69649500D01*
X127345042Y-69657208D01*
X127183760Y-69682753D01*
X126981585Y-69748444D01*
X126792179Y-69844951D01*
X126620213Y-69969890D01*
X126469890Y-70120213D01*
X126344951Y-70292179D01*
X126248444Y-70481585D01*
X126182753Y-70683760D01*
X126149500Y-70893713D01*
X123500500Y-70893713D01*
X123500500Y-67124500D01*
X123520185Y-67057461D01*
X123572989Y-67011706D01*
X123624500Y-67000500D01*
X175875500Y-67000500D01*
X175942539Y-67020185D01*
G37*
%TD.AperFunction*%
%TD*%
M02*
